<?xml version="1.0" encoding="UTF-8" standalone="no"?>
<!-- Created with Inkscape (http://www.inkscape.org/) -->

<svg
   width="49.537937mm"
   height="49.537937mm"
   viewBox="0 0 49.537937 49.537937"
   version="1.1"
   id="svg202"
   xmlns="http://www.w3.org/2000/svg"
   xmlns:svg="http://www.w3.org/2000/svg">
  <defs
     id="defs199" />
  <g
     id="layer1"
     transform="translate(-40.076629,-66.946351)">
    <g
       id="g16"
       transform="matrix(0.26458333,0,0,0.26458333,35.581358,62.030393)">
      <path
         class="cls-1"
         d="M 196.78,23.2 H 24.44 c -1.56,0 -2.83,1.27 -2.83,2.83 v 172.33 c 0,1.56 1.27,2.83 2.83,2.83 h 172.33 c 1.56,0 2.83,-1.27 2.83,-2.83 V 26.03 c 0,-1.56 -1.27,-2.83 -2.83,-2.83 z m 0.44,172.78 c 0,1.56 -1.27,2.83 -2.83,2.83 H 26.83 c -1.56,0 -2.83,-1.27 -2.83,-2.83 V 28.42 c 0,-1.56 1.27,-2.83 2.83,-2.83 h 167.56 c 1.56,0 2.83,1.27 2.83,2.83 z"
         id="path6"
         style="fill:#231f20" />
      <path
         class="cls-1"
         d="M 200.56,18.58 H 20.66 c -2.03,0 -3.67,1.64 -3.67,3.67 v 179.89 c 0,2.03 1.64,3.67 3.67,3.67 h 179.89 c 2.03,0 3.67,-1.64 3.67,-3.67 V 22.25 c 0,-2.03 -1.64,-3.67 -3.67,-3.67 z m 1.26,181.16 c 0,2.03 -1.64,3.67 -3.67,3.67 H 23.07 c -2.03,0 -3.67,-1.64 -3.67,-3.67 V 24.65 c 0,-2.03 1.64,-3.67 3.67,-3.67 h 175.08 c 2.03,0 3.67,1.64 3.67,3.67 v 175.08 z"
         id="path8"
         style="fill:#231f20" />
      <path
         class="cls-1"
         d="m 96.77,150.58 c 0,0 -1.13,-2.08 -2.26,-2.05 -0.72,0.02 -1.38,-0.02 -1.93,-0.08 -0.49,-1.43 -1.2,-3.68 -1.61,-5.77 -1.12,-5.79 -3.37,-8.83 -4.2,-10.12 -1.13,-1.76 -1.34,-3.47 -1.38,-4.09 0,-0.09 0.23,-3.43 0.38,-4.5 0.25,-1.75 -2.78,-3.41 -1.55,-5.06 2.08,-2.79 0.16,-5.25 1.69,-10.89 0,0 0.21,-1.61 0.75,-2.95 0.32,0.16 0.63,0.39 0.85,0.76 0.27,0.44 -0.57,3.44 -0.24,10.78 0.17,3.72 1.25,11.81 3.7,18.47 2.11,5.75 1.93,7 2.34,8.53 0.46,1.72 0.75,3.64 1.82,3.47 1.19,-0.19 0.03,-2.69 -1.14,-8.97 -0.7,-3.76 -2.91,-9.02 -3.92,-13.94 -1.18,-5.76 -1.58,-12.19 -0.57,-16.92 1.11,-5.13 -0.05,-6.31 5.45,-13.75 l -3.31,-0.14 c 0,0 -6.76,6.64 -6.89,11 -0.32,0.93 -0.61,1.82 -1.16,1.69 -1.32,-0.32 0.96,-8.51 0.96,-11.62 0,-3.11 -3.27,-6.29 -5.67,-6.17 -5.46,0.29 -5.67,5 -2.33,4.54 0,0 2,-2 3.5,-1.04 3.09,1.97 -0.17,11.08 0.91,16.7 0.33,1.7 -0.53,1.32 -1.62,1.43 -3.42,0.21 -4.5,-2.62 -4.25,-2.96 0.39,-0.52 1.68,1.29 2.33,0.79 1.09,-0.83 -1.1,-2.12 -1.25,-2.87 -0.79,-3.96 -4.98,-8.01 -7.17,-16.42 -2.56,-9.86 -3.51,-12.6 -3.8,-13.76 -0.29,-1.17 0.29,-1.79 3,-3.46 L 67.63,71 c 0.89,-1.41 2.53,-3.91 2.96,-3.75 1.72,0.67 -0.31,4.5 1.56,4.67 2.14,0.19 4.16,-4.69 2.33,-7.72 -1.01,-1.68 -1.82,-1.87 -2.74,-3.33 -0.92,-1.46 -1.89,-4.32 -0.76,-4.51 0.62,-0.1 1.23,1.76 2.83,3.17 0.96,0.85 2.57,1.22 3.94,1.78 0.58,0.24 0.12,3.28 -0.33,3.61 -2.11,3.06 -2.88,9.86 0.33,13.44 3.21,3.58 8.86,2.13 10.56,1.5 1.7,-0.63 4.26,-2.18 5.11,-3.78 0.97,-1.82 -0.1,-5.83 -1.72,-6.83 -1.62,-1 -4.36,-1.32 -5.61,0.39 -1.25,1.71 0.78,2.89 0.78,2.89 0,0 2.26,-0.76 3.56,0.78 1.29,1.54 0.22,3.5 -2.83,3.72 -4.53,0.33 -7.85,-1.93 -7.06,-6.68 0.79,-4.75 4.5,-8.24 7.34,-11.65 1.29,-1.55 -0.02,-4.25 0.5,-6.28 0.41,-1.59 1.99,-3.43 1.6,-4.64 -0.96,-2.92 -0.65,-5.86 -2.48,-7.86 -0.86,-0.94 -4,-5.06 -10.22,-6.28 -9.23,-1.81 -13.72,3.61 -16.33,3.22 -0.87,-0.13 -1.69,-4.06 -2.11,-4.56 -0.42,-0.5 -3.67,-3.83 -3.67,-3.83 0,0 -1.21,-0.01 -1,2.61 0.21,2.62 -0.27,9.24 -1.17,9.17 -1.44,-0.11 -1.47,-2.42 -2.06,-4.33 -0.58,-1.92 0.76,-3.15 0.72,-4.78 -0.04,-1.62 -5.28,-4.94 -6.72,-1.28 -0.41,1.03 5.94,2.39 2.5,5.28 0,0 -2.78,-2.61 -7.97,-1.85 -1.95,0.29 -4.09,-4.04 -6.14,-4.6 -3.67,-0.99 -7.02,1.43 -6.61,3.87 0.22,1.33 0.84,2.91 2.95,1.63 0.73,-0.44 0.17,-2.28 1.33,-2.33 3.99,-0.19 4.44,3.36 4.78,4.11 0.5,1.11 -2.05,3.23 -2.78,5.11 -0.56,1.45 -1.1,3.1 -3.56,4.56 -2.46,1.46 -2.89,3.5 -3.26,7.11 0.93,2.83 2.29,4.54 3.37,4.17 1.08,-0.37 -0.4,-2.18 -0.28,-3.72 0.12,-1.54 1.91,-2.86 2.72,-2.78 1.57,0.17 1.35,0.89 1.89,2.06 0.54,1.17 2.78,4.56 2.78,4.56 0,0 0.67,2.28 0.39,4.02 -0.1,0.62 0.3,1.13 0.8,1.52 0.29,2.35 -0.31,5.19 3.68,14.08 3.41,7.61 15.94,24.34 18.53,26.99 3.17,3.24 6.07,7.39 6.88,8.58 3.92,5.83 6.61,6.5 7.14,8.39 0.6,2.14 -1.51,-0.47 -8.89,-5.06 -5.77,-3.58 -7.88,-5.25 -10.12,-7.19 -2.14,-1.85 -1.25,-2.76 0.16,-3.68 1.58,-1.04 2.62,-1.38 0.88,-2.79 -1.3,-1.05 -2.73,-0.4 -3.64,0.4 -2.27,1.98 -2.33,5.13 -0.44,7.1 2.63,2.74 6.51,6.09 13.04,9.54 2.51,1.33 9.19,5.01 7.72,6.19 -0.13,-0.04 -0.26,-0.08 -0.4,-0.12 -4.15,-1.24 -6,-2.97 -9.99,-3.49 -2.54,-0.33 -8.22,-0.31 -10.83,-0.42 -2.61,-0.11 -3.43,-2.28 -7.04,-5.33 -1.49,-1.26 -3.37,-3.99 -4.71,-6.33 -3.67,-6.44 -2.27,-9.37 -2.27,-9.37 0,0 -6.67,-0.28 -4.22,-4.33 3.6,-5.97 7.75,-5.54 10.41,-1 l -1.38,1.88 c 0,0 -2.99,1.54 -3.08,3.17 0.71,2.33 5.06,-0.12 5.58,-1.29 1.08,-2.46 2.61,-3.33 -0.83,-7.5 -1.35,-1.64 -3.05,-2.31 -4.83,-2.19 -0.39,-0.53 -2.04,-2.89 -1.01,-3.56 1.17,-0.75 1.58,-8.83 -2.33,-10.58 -3.92,-1.75 -7.92,2.08 -8,4.58 -0.08,2.5 3,3.08 3,3.08 0,0 1.42,-0.83 1.67,-0.97 0.25,-0.14 -1.33,-2.78 1.04,-3.86 2.38,-1.08 3.46,3.25 2.96,5.95 -0.49,2.64 -2.42,3.69 -3.67,8.91 -0.57,0.62 -1.11,1.3 -1.62,2.06 0,0 -2.76,0.89 -3.38,1.45 -0.61,0.56 0.41,1.65 1.02,2.78 0.15,0.27 -0.95,2.63 1,6.89 0.77,1.67 1.62,6.47 3.9,10.47 2.28,4 3.54,7.03 6.71,10.62 1.06,1.2 -3.06,4.88 -3.79,7.27 -0.72,2.39 -2.71,6.29 -2.34,7.23 1.42,3.58 0.79,7.17 1.12,8.21 0.33,1.03 1.11,0.92 1.06,2.64 -0.05,1.72 2.86,8.57 4.19,9.24 1.33,0.67 2.53,0.61 5.08,1 2.56,0.39 5.92,2.35 9.42,1.96 3.5,-0.39 6.47,-2.71 8.42,-3.54 1.94,-0.83 4.96,-2.49 6.96,-3.38 2,-0.89 1.57,-3.56 1.79,-4.33 0.22,-0.78 1.5,-1.9 1.79,-2.79 0.29,-0.89 -0.56,-5.71 -0.83,-8.21 -0.27,-2.5 -0.25,-3.5 0.92,-3.92 h 0.55 c 2.82,2.87 8.38,8.64 9.03,10.08 1.47,3.28 -3.01,3.72 -3.25,6.83 -0.24,3.11 2.83,5.77 4.25,6.39 1.39,0.61 0.64,1.36 0.97,1.97 -4.39,8.64 -7.14,11.83 -12.31,13.91 -3.73,1.5 -6.42,0.34 -8.78,-2.75 -0.23,-0.31 -0.06,-2.52 0.14,-2.89 1.17,-2.17 3.69,-0.14 3.69,-0.14 0,0 1.33,-1.46 1.47,-2.31 0.22,-1.31 -1.73,-2.59 -3.31,-2.56 -3.06,0.05 -4.19,2.5 -4.32,5.67 -0.31,7.12 3.65,10.16 5.08,10.69 2.69,1 0.39,2.58 -6.17,2.31 -5.76,-0.24 -8.97,-1.53 -9.53,-2.06 -0.56,-0.53 -0.03,-2.17 0.72,-3.75 2.5,-2.72 2.92,-6.73 1.97,-8.14 -3.06,-4.53 -6.25,-5.88 -9.22,-6.25 -2.84,-0.36 -3.63,0.9 -5.21,2.35 -1.39,1.28 -2.93,1.93 -3.55,2.4 -1.33,1 -2.69,-2.46 -4.92,-9.5 -1.62,-5.12 0.62,-12.39 0.62,-12.39 0,0 1.12,-6.33 0.33,-7.83 -0.79,-1.5 -3.78,-4.06 -5.44,-2.39 -1.67,1.67 -1.04,3.96 -1.04,3.96 0,0 2.69,0.5 3.21,1.43 2.17,3.89 -4.16,15.69 -3.06,20.67 0.83,3.75 3.64,7.39 3.56,9.39 -0.08,2 0.76,3.85 3.22,5.89 2.15,1.79 3.12,6.45 4.6,8.19 0.26,0.31 -1.1,0.83 -1.66,1.69 -0.29,0.44 1.56,3.39 -0.97,2.56 -0.53,-0.18 -0.73,-2.73 -1.19,-2.92 -2.79,-1.12 -2.71,-3.36 -3.89,-5.17 -0.76,-1.17 -2.62,-0.75 -2.62,-0.75 0,0 -2.71,2.08 -1.02,6.08 1.59,3.75 5.92,5.36 7.64,5.83 2.84,0.78 8.83,-0.31 11.08,-0.39 2.25,-0.08 3.36,2.47 15.61,2.81 12.25,0.33 18.31,-6.82 19.69,-6.5 3.39,0.78 3.5,5.53 5.47,5.56 1.39,0.02 2.22,-7.78 2.94,-9.67 0.36,-0.94 2.67,-3.67 4.08,-7.67 1.33,-3.78 2.66,-8.15 3.03,-8.48 0.75,-0.67 1.22,-5.97 1.22,-5.97 l 0.26,-1.25 1.23,0.23 0.06,-0.74 0.94,-12.01 -2.75,0.17 z m -64.66,20.18 c 0,0 -1.38,-2.29 -1.58,-3.13 -0.21,-0.83 -0.38,-1.98 -0.38,-1.98 0,0 1.92,1.65 2.25,2.81 0.33,1.17 -0.29,2.29 -0.29,2.29 z m 10.21,-2.13 c 1.83,-0.41 1.42,-1.09 2.12,-1.17 0.71,-0.08 2.25,0.04 2.25,0.04 v 0.7 c 0,0 -2.83,0.18 -3.96,1.05 -1.13,0.87 -1.4,1.92 -1.97,1.25 -0.57,-0.67 -0.28,-1.47 1.55,-1.88 z m -2.96,12.96 c -0.12,0 -5.29,-6.08 -5.46,-6.92 -0.17,-0.84 0,-1.67 0,-1.67 l 7.25,8.58 h -1.79 z m 7.29,-1.71 c -1.28,0.56 -5.5,-2.15 -5.83,-3.82 -0.33,-1.67 0.85,-4.1 3.79,-4.43 2.94,-0.33 4.21,2.05 4.21,3.42 0,1.74 -0.89,4.27 -2.17,4.83 z m 4.42,-5.25 1.38,0.5 -0.96,1.33 z m 10.96,16.84 c -2.83,-0.12 -2.29,-2.92 -4.67,-2.08 -1.08,0.38 0.96,1.25 0.54,1.83 -0.42,0.58 -1.79,0.31 -1.88,-1.42 -0.09,-1.73 -1.88,-2.25 -1.88,-2.25 l 1.12,-1.04 c 0,0 3.79,1.46 5.75,1.79 1.96,0.33 8.21,-0.9 8.21,-0.9 0,0 -4.38,4.19 -7.21,4.06 z M 65.39,85.61 c 1.47,1.68 2.38,3.64 2.39,6.33 0,1.85 5.18,7.17 3.42,8.58 -0.7,0.56 -2.57,-4.12 -4.23,-7.17 -0.37,-0.69 -1.83,-1.67 -2.67,-3.67 -0.89,-2.11 -1.12,-5.28 -1.81,-5.75 -2.14,-1.47 -0.83,-3 -1.44,-4.22 -1.33,-2.65 -2.33,-5.42 -1.42,-6.64 0.84,-1.12 2.5,-1.19 3.36,-0.28 1.16,1.22 1.59,11.89 2.39,12.81 z m 5.05,20.13 C 69.53,106.16 59.69,90.7 58.08,87.91 56.25,84.74 53.66,83.6 52.54,80.38 52.19,79.37 47.95,68.42 49.47,67.82 c 0.89,-0.35 7.13,2.79 7.69,4.64 0.44,1.44 0.03,4.08 2.25,11.97 1.84,6.52 10.84,18.64 11.75,20.97 0.2,0.51 -0.48,0.22 -0.72,0.33 z M 65.07,67.88 c -0.23,1.34 -2.42,2.5 -4.58,1.33 -2.18,-1.18 -4.28,-1.16 -5.52,-2.08 -1.05,-0.78 0.23,-2.54 -2.1,-3.17 -1.39,-0.37 -1.16,-1.57 0.29,-1.51 1.45,0.06 4.23,1.86 5.35,2.22 3.65,1.17 5.64,-0.18 7.77,0.5 0.92,0.29 -0.98,1.36 -1.21,2.71 z M 60.9,57.27 c 0,0 -0.29,2.86 -1.38,2.78 -1.09,-0.08 -3.25,-1.82 -3.08,-2.55 0.46,-2.04 1.92,-2.22 1.92,-2.22 l 2.54,2 z m -1.75,-6.22 c 0.17,-0.71 0.36,-1.53 1.62,-1.25 0,0 3.31,1.6 1.17,2.39 -1.33,0.49 -2.96,-0.43 -2.79,-1.14 z m 4.57,9.53 c -0.45,-0.79 -0.04,-2.34 1,-2.83 1.16,-0.55 3,0 3,0 l 0.61,2.3 c -2.4,1.2 -3.66,2.2 -4.61,0.53 z m 3.29,-6.35 c -0.83,-0.26 -1.21,-1.51 -0.98,-2.39 0.22,-0.87 1.28,-0.79 1.28,-0.79 0,0 0.72,0.44 1.28,1.17 0.56,0.72 -0.08,2.48 -1.57,2.01 z m 19.1,1.05 c 0.91,0.72 -2.92,5.78 -4.72,7.06 -0.99,0.7 -0.33,-2.02 -0.86,-2.53 -1.5,-1.44 1.54,-1.73 2.2,-2.23 0.66,-0.5 1.04,-2.3 1.04,-2.3 0,0 0.92,-1.11 2.33,0 z M 64.48,44.13 c 1.48,-0.33 3.44,0.17 3.93,-0.65 1,-1.69 -1.2,-2.79 -0.88,-3.71 0.61,-1.75 4.47,-1.86 9.75,-0.58 5.28,1.28 8.65,6.05 7.09,11.66 -1.56,5.61 -5.89,5.7 -7,4.43 -1.11,-1.28 0.86,-3.69 -1.08,-4.15 -1.18,-0.28 -1.62,0.35 -3.62,0.52 -2,0.17 -2.22,-3.07 -3.89,-3.62 -1.67,-0.55 -4.57,0.78 -5.94,-1.72 -0.46,-0.84 0.43,-1.9 1.64,-2.17 z m -4.2,-2.55 c 0,0 3.06,-0.56 2.89,0.22 -0.17,0.78 -2.16,1.94 -2.16,1.94 0,0 -1.86,0.94 -3.06,4.06 -0.74,1.93 -3.79,2 -2.51,-0.11 1.78,-2.93 4.83,-6.11 4.83,-6.11 z m -7.63,4.85 c 2.48,-3.46 2.48,-6.08 4.11,-7.24 0.96,-0.68 1.24,1.14 1.18,1.97 -0.06,0.83 -2.98,3.2 -3.94,6.25 -0.49,1.57 -2.29,0.33 -1.35,-0.99 z m -1.37,9.33 c 0.71,0.04 1.62,0.67 1.71,1.33 0.08,0.67 -4.3,4.3 -5.79,2.96 -1.21,-1.09 0.36,-5.14 0.36,-5.14 l 0.68,0.37 c 0,0 -0.75,1.99 0.79,2.46 1.54,0.47 1.54,-2.02 2.25,-1.98 z M 48.32,39.19 c 1.28,0 1.28,2 1.28,2 -1.06,1 -1.2,1.95 -1.2,1.95 0,0 -2.8,-0.11 -3.19,-1.61 -0.39,-1.5 1.83,-2.33 3.11,-2.33 z m -3.25,7.07 c -0.11,1.45 -1.21,1.29 -2.04,2.42 -0.7,0.94 -1.58,0.16 -2.08,-1.34 -0.5,-1.5 0.34,-1.71 1.34,-2.29 1,-0.58 2.85,0.27 2.78,1.21 z m -2.58,10.96 -0.21,1.04 -0.94,-1.04 z M 37.84,46.19 c -0.69,0 -1.81,-1.06 -1.86,-2.39 -0.06,-1.33 2.09,-2.04 2.09,-2.04 l 1.58,1.21 c 0,1.44 -1.11,3.22 -1.8,3.22 z m 2.7,-9.4 c 1.44,-1.11 2.77,0.45 2.44,1.39 -0.39,1.11 -0.36,0.84 -1.92,0.89 C 39.5,39.12 39.1,37.9 40.54,36.78 Z M 73.2,115.74 C 69.33,112.26 49.95,86.48 47.87,83.17 42.23,74.19 39.1,63.2 40.6,62.31 c 1.5,-0.89 6.15,2.6 6.13,3.76 -0.06,2.28 2.02,12.18 5.17,17.73 2.34,4.13 6.35,9.35 9.9,14.36 3.07,4.34 5.67,8.52 8.08,11.69 2.19,2.88 4.39,4.87 4.53,5.49 0.02,0.09 -0.89,0.69 -1.22,0.4 z m -10.78,14.78 c 1.05,-0.28 1.28,1.22 2.89,1.5 1.61,0.28 4.78,3.94 4.64,5.14 -0.14,1.19 -2.39,0.72 -2.83,0.75 -0.44,0.03 -1.33,0.92 -1.81,-0.78 -0.47,-1.69 1.64,-2.44 0.28,-3.42 -1.36,-0.97 -3.17,-0.38 -3.61,-1.34 -0.44,-0.96 -0.39,-1.63 0.44,-1.85 z m -22.31,-9.78 c 0.33,-0.67 1.19,-0.42 1.19,-0.42 0,0 4.64,5.3 7.97,9.94 2.03,2.83 3.25,5.41 3.62,6.38 0.58,1.52 -0.28,3.01 -0.28,3.01 0,0 -0.17,3.72 2.06,3.89 1.27,0.1 3.02,-1.28 3.17,-2.53 0.15,-1.25 -2.64,-6.97 -5.08,-10.36 -2.44,-3.39 -7.56,-9.91 -7.56,-9.91 h 1.08 c 0,0 4.33,4.86 7.22,6.86 1.71,1.18 6.19,6.72 6.19,7.97 0,2.57 2.39,3.4 2.47,4.94 0.19,3.81 -0.91,3.03 -2.2,4.28 -1.37,1.33 -3.17,2.59 -4.89,2.78 -4.14,0.45 -6.53,-3.39 -6.97,-4.89 -0.44,-1.5 0.08,-7.56 -1.39,-10.94 -0.84,-1.94 -6.94,-10.33 -6.61,-11 z m 2.58,12.42 c 0,0 1.44,0.33 1.21,1.5 -0.24,1.16 -2.68,1.9 -2.73,3.51 -0.06,1.61 1.14,0.66 1.36,2.27 0.22,1.61 -3.56,3.67 -3.56,-0.28 0,-3.12 3.22,-7.39 3.72,-7 z m 10.67,25.25 c -2,0.76 -2.96,0.77 -6.68,0.55 -3.72,-0.22 -5.23,-2.58 -5.84,-3.97 -0.61,-1.39 -0.87,-3.72 -1.28,-5.19 -0.41,-1.49 0.18,-2.83 1.25,-3.47 0.78,-0.46 0.74,-1.62 1.54,-1.64 2.56,-0.06 5.77,1 2.18,4.28 -1.14,1.04 -1.29,4.43 0.78,4.83 4.39,0.86 4.75,-2.58 6.75,-2.75 2,-0.17 3.14,3.31 4.01,4.17 0.69,0.68 -0.7,2.43 -2.7,3.19 z m 15.19,-5.12 c -2.11,1.46 -1.49,2.9 -5.97,3.01 -1.5,0.04 -2.81,0.21 -3.75,-1.17 -0.94,-1.38 -1.75,-4.28 1.31,-4.75 1.87,-0.29 3.93,1.3 5.71,-0.98 1.78,-2.28 -1.88,-4.35 -1.54,-6.16 0.36,-1.92 1.98,-2.12 3.42,-1.67 1.68,0.53 2.44,0.61 3.11,2.19 0.67,1.58 0.56,7.55 -2.28,9.52 z m 1.42,-21.49 c -1.03,-0.86 -0.86,-0.97 -0.86,-0.97 l 0.72,-0.17 2.22,1.64 c 0,0 -1.06,0.36 -2.08,-0.5 z m 5.97,-1.19 c -1.52,0.36 -3.47,-1.17 -4.28,-2.42 0,0 1,-0.58 1.72,-0.11 0.72,0.47 3.17,2.38 2.56,2.53 z m 7.42,12.11 c -0.62,-0.69 -3.33,-3.56 -5.39,-5.75 0.16,-0.57 0.45,-1.2 0.92,-1.22 1.22,-0.06 2.85,1.68 7.1,4.68 3.04,2.14 3.61,6.43 3.71,8.41 -0.23,0.44 -0.6,0.97 -1.1,0.99 -2.91,0.14 -2.24,-3.78 -5.24,-7.11 z m -8.87,44.29 c -0.44,0.11 -3.36,0 -2.91,-0.79 0.44,-0.78 4.79,-2.8 4.79,-2.8 0,0 1.03,-0.29 1.25,0.88 0,0 -2.68,2.6 -3.12,2.71 z m 18.76,-16.74 c -0.14,6.28 -2.22,6.05 -4.36,10.58 -1.02,2.16 -2.78,8.39 -4.42,7.19 -1.37,-1 0.29,-1.7 1.39,-4.53 1.22,-3.14 1.75,-4.33 1.39,-5.5 -0.09,-0.28 -0.33,-2.77 1.16,-4.21 2.53,-2.44 3.31,-3.89 3.68,-5.07 0.67,-2.17 -2.58,-2.64 -4.36,-0.22 -1.07,1.45 1.11,2.78 -2.86,7.81 -0.34,0.44 -2.76,1 -3.81,1.69 -1.2,0.8 -1.08,1.72 -1.94,1.65 -3,-0.25 -6.11,3.21 -6.59,1.16 -0.14,-0.59 2.28,-0.26 8,-4.5 4.98,-3.69 4.75,-10.35 7.7,-12.39 0.74,-0.51 1.5,-0.36 2.75,-0.53 1.25,-0.17 2.56,-1.17 2.56,-1.17 l 0.28,0.05 c 0.21,0.64 0.51,1.66 0.5,3 -0.03,2.14 -1.01,2.83 -1.06,4.97 z"
         id="path10"
         style="fill:#231f20" />
      <path
         class="cls-1"
         d="m 190.74,137.05 c 1,-0.38 5.67,-0.46 5.67,-0.46 0,0 0.62,-2.29 -1.04,-3.96 -1.66,-1.67 -7,1.33 -7.79,2.83 -0.79,1.5 0,6 0,6 0,0 3.5,13.62 1.88,18.75 -2.23,7.04 -3.58,10.5 -4.92,9.5 -1.34,-1 -6.25,-5.81 -11.46,-4.38 -6.21,1.71 -5.46,9.04 -5.46,9.04 0,0 -0.83,5.83 1.33,7.17 0.75,1.58 0.08,3 0.08,3 0,0 -3.5,2.92 -9.25,2.5 -5.75,-0.42 -10.67,-2.08 -9.92,-3.42 0.75,-1.33 5.75,-0.92 8.67,-7.42 2.92,-6.5 -3.58,-11.5 -6.25,-10 -2.67,1.5 -2.9,2.58 -2.49,3.33 0.41,0.75 0.7,1.65 3.04,0.61 2.34,-1.04 4.04,1.51 3.7,2.43 -1.28,3.41 -5,5.54 -8.88,4.46 -7.56,-2.11 -9.79,-4.33 -11.46,-14 1.67,-1.58 1.25,-2.75 1.25,-2.75 2.5,-1 1.5,-3.92 1.5,-3.92 -2.08,-1.5 -2.5,-4.5 -1.75,-6.5 0.75,-2 7.46,-12.79 7.46,-12.79 l -1.88,-0.12 c 0,0 -6.33,11.17 -7.75,11.75 -1.42,0.58 -1.75,1.25 -2.58,1.08 -0.44,-0.09 -0.78,-0.51 -1.02,-0.9 0.25,-2.16 1.16,-7.44 4.13,-9.93 3.78,-3.17 8,-4.56 8.56,-3.89 0.56,0.67 0.94,1.28 0.94,1.28 l 2.11,-0.28 c 0.56,0.89 -1.44,5.06 -1.72,7.56 -0.28,2.5 1.53,3.94 1.82,4.83 0.29,0.89 -0.49,1.56 -0.26,2.33 0.23,0.77 3.06,6.78 5.06,7.67 2,0.89 2.44,0.22 4.39,1.06 1.94,0.83 3.72,2.61 7.22,3 3.5,0.39 7.44,-1 10,-1.39 2.56,-0.39 4,0.11 5.33,-0.56 1.33,-0.67 5.56,-6.94 5.5,-8.67 -0.06,-1.72 -0.33,-1.54 0,-2.58 0.33,-1.03 1.22,-0.7 1.39,-1.7 0.17,-1 0.39,-9.06 -0.33,-11.44 -0.72,-2.39 -6.56,-9.61 -6,-11.11 0.85,-2.29 4.17,-4.11 6.44,-8.11 2.27,-4 1.5,-4.67 2.28,-5.06 2.06,-1.22 2.12,-4.77 2.89,-6.44 1.95,-4.26 0.85,-6.62 1,-6.89 0.61,-1.13 2.5,-4.17 1.89,-4.72 -0.61,-0.56 -3.89,-0.44 -3.89,-0.44 -3.72,-5.56 -10.11,-7.72 -13.56,-3.56 -3.44,4.17 -2,8.67 -0.94,9.39 1.06,0.72 3.44,1.94 4.33,1.17 0.89,-0.78 3.78,-3.56 0.89,-5.67 -1.17,0.28 -2.22,0.94 -2.22,0.94 l -1.72,-1.72 c 2.17,-4.28 7.18,-4.25 10.78,1.72 2.44,4.06 -4.22,4.33 -4.22,4.33 0,0 0.22,3.94 -3.44,10.39 -1.33,2.34 -6.44,10.72 -9.06,10.83 -2.61,0.11 -8.22,-0.33 -10.78,-0.44 -0.6,-0.03 -2.25,0.38 -4.41,1.01 -2.76,-0.5 -3.55,-1.07 -2.43,-1.51 11.45,-4.54 12.7,-5.57 15.33,-8.31 1.9,-1.98 4.23,-8 -0.33,-9.92 -3.7,-1.56 -6.8,0.82 -5.83,2.17 1.6,2.22 2.08,-0.28 3.72,0.11 1.64,0.39 2.98,2.22 1.29,4.49 -1.64,2.21 -5.09,5.07 -11.43,7.51 -6.33,2.44 -10.4,6.86 -11.65,5.03 -2,-2.92 3.58,-7.67 4.83,-9.65 0.75,0.24 1.19,3.1 2.04,1.93 0.85,-1.17 4.82,-7.04 7.99,-10.28 2.6,-2.65 14.9,-14.42 18.32,-22.03 4.33,-9.65 3.35,-14.99 3.89,-17.98 0.04,-0.12 0.77,-2.13 2.14,-2.65 1.42,-0.54 1.75,-1.62 1.75,-1.62 0,0 -0.29,-6.79 0.25,-7.96 0.54,-1.17 1.83,-3.25 2.58,-2.92 0.75,0.33 3.38,1.38 3.5,2.92 0.12,1.54 -1.42,4.17 -0.33,4.54 1.08,0.38 2.12,-1.92 3.42,-2.96 1.38,-3.42 0.38,-7.04 -2.08,-8.5 -2.46,-1.46 -5.33,-1.92 -5.12,-3.46 0.21,-1.54 -2.17,-3.62 -1.83,-4.38 0.33,-0.75 -0.29,-4.92 3.67,-5.46 3.96,-0.54 3.67,1.62 4.5,1.83 0.83,0.21 3.54,-0.62 1.88,-2.46 -1.67,-1.83 -7.42,-3.92 -10,-1.12 -2.58,2.79 -4.29,4.08 -4.29,4.08 -2.38,-1.29 -6.88,0.17 -6.88,0.17 -1.71,-1.21 -1.21,-4.17 -2.29,-4.42 -1.08,-0.25 -2.67,0.67 -2.71,2.29 -0.04,1.62 1.79,2.25 1.21,4.17 -0.58,1.92 -0.67,3 -1.54,3.21 -0.87,0.21 -3.92,-3.83 -3.71,-6.46 0.21,-2.63 -0.58,-3.12 -0.58,-3.12 l -1.75,0.08 c 0,0 -1.64,0.06 -2.36,2.49 -0.25,0.85 -1.93,1.64 -1.93,1.64 l -0.29,0.79 c 0,0 -6,-4.42 -15.17,-2.29 -9.17,2.12 -10.71,10.17 -10.96,11.42 -0.25,1.25 -1.62,2.08 -1.62,2.08 0,0 0.67,4.5 0.83,7.38 0.17,2.88 -0.29,3.42 0.38,5 0.67,1.58 6.75,5.75 7.54,10.5 0.79,4.75 -1.71,8.58 -6.25,8.46 -4.54,-0.12 -5.13,-2.5 -3.83,-4.04 1.29,-1.54 4.61,-0.88 4.61,-0.88 0,0 2.3,-0.46 1.05,-2.17 -1.25,-1.71 -4.04,-2.12 -5.67,-1.12 -1.63,1 -4.67,3.25 -3.25,7.54 1.42,4.29 6.88,5.33 6.88,5.33 1.21,-0.71 5.5,-0.04 8.71,-3.62 3.21,-3.58 2.62,-12.29 1.96,-13.58 -0.46,-0.33 -0.96,-1 -0.58,-1.5 0.38,-0.5 3.38,-3.46 4.46,-3.08 1.08,0.38 1.92,0.71 1,2.17 -0.92,1.46 -3.62,2.42 -3.79,4.38 -0.17,1.96 1.25,7.12 3.12,7.08 1.88,-0.04 2.08,-2.88 2.71,-2.83 0.56,0.04 2.58,1.28 3.02,1.55 1.79,1.18 2.19,1.79 1.94,2.78 -0.29,1.17 -1,10.12 -4.83,17.92 -3.83,7.79 -6.75,11.71 -6.92,12.46 -0.17,0.75 0.92,1.17 -0.25,1.88 -1.17,0.71 -2.83,3.33 -2.83,3.33 -0.5,-0.58 -1.65,0.19 -1,-1.42 1.74,-4.28 -2.05,-15.6 0.74,-17.97 2.79,-2.38 6.11,-0.2 6.11,-0.2 1.56,-2.11 -2.78,-4.78 -5.11,-4.22 -2.33,0.56 -4.5,2.89 -4.33,8.5 0.09,3.11 2,12.72 0.89,13.5 -1.11,0.78 -2.78,0 -2.78,0 -1.78,5.22 0.36,8.31 1.32,10.47 0.83,1.87 -2.79,5.62 -2.54,7.38 0.1,0.72 1.23,1.81 1.99,2.48 -0.03,0.74 -0.18,2.4 -0.77,3.41 -0.78,1.32 -2.91,3.29 -4.18,6.51 -0.99,2.5 -1.43,7.47 -1.59,9.59 l -1.32,0.69 c -1.05,-1.39 -1.98,-1.67 -1.03,-4.13 0.57,-1.48 -0.11,-6.2 2,-11.94 2.44,-6.67 3.97,-13.83 4.14,-17.56 0.33,-7.33 -1.08,-8.33 0,-9.5 1.08,-1.17 2.75,-1 2.75,-1 -1.42,-8.17 -10.75,-11 -10.75,-11 v 3 c 5.5,3.25 5.08,5.25 6,10.42 0.49,2.78 0.1,9.44 -1.08,15.19 -1.01,4.92 -2.73,8.87 -3.42,12.64 -1.5,8.17 -1.5,11.5 -1.5,12.58 0,0.56 -0.45,1.76 -0.89,2.78 l -0.36,0.14 -2.75,-0.17 0.94,12.01 0.06,0.74 0.49,-0.03 -0.91,5.61 c 0,0 2.34,0.03 2.58,1 0.81,3.19 4.63,12.22 7.69,17.14 0.25,4.42 0.31,9.86 3.31,9.86 3,0 2.75,-4.83 4,-5.5 1.25,-0.67 11.17,6.33 23.42,6 12.25,-0.33 13.92,-4.33 16.17,-4.25 2.25,0.08 3.17,1.17 3.67,1.17 0.5,0 1.33,-1.08 1.83,-1.08 0.5,0 1.67,1.5 2.08,1.33 0.42,-0.17 2.71,-1.25 5.08,-3.67 2.15,-2.19 1.83,-8.17 1.83,-8.17 l -2.08,0.25 c 0,0 -2.38,5.21 -4.29,5.79 -1.92,0.58 -5.21,0.46 -3.96,-1.46 1.25,-1.92 2.76,-6.21 4.92,-8 2.46,-2.04 4.38,-4.83 4.29,-6.83 -0.09,-2 0.21,-3.93 2.29,-7.17 2.24,-3.48 -2.9,-12.98 -3.75,-18.17 -0.92,-5.62 -1.46,-9.54 -0.46,-9.92 z m -27.8,12.38 c -0.94,1.37 0.26,3.64 -0.5,4.93 -1.28,2.17 -7.83,1.41 -9.94,-0.06 -2.84,-1.97 -3.22,-5 -3.61,-10.33 0,0 5.56,-3.07 6.89,-1.78 1.33,1.28 -3.39,4.23 -1.61,6.51 1.78,2.28 4.78,-1.44 6.67,-1.39 1.89,0.06 3.06,0.76 2.11,2.13 z m 15.39,5.37 c -0.61,1.39 -1.28,3.22 -5,3.44 -3.72,0.22 -7.61,-2.06 -7.61,-2.06 v -6.06 c 0,0 0.39,-1.61 2.39,-1.44 2,0.17 4.28,5.83 6.28,5.17 2,-0.67 1.67,-4.28 0.72,-5.5 -0.94,-1.22 0,-4.44 2.56,-4.39 2.56,0.06 4.67,4.83 4.67,4.83 0,0 -3.39,4.61 -4,6 z m 4.61,-14.89 c 0,3.94 -5.72,1.89 -5.5,0.28 0.22,-1.61 1.83,-1.02 1.78,-2.63 -0.06,-1.61 -1.39,-3.09 -1.39,-3.09 l 0.11,-1.17 c 0.5,-0.39 5,3.5 5,6.61 z m -9.61,-16.55 c 2.89,-2 4.61,-5.17 4.61,-5.17 l 1.56,0.39 c 0,0 -9.33,11.44 -11.78,14.83 -2.44,3.39 -3.33,6.5 -3.33,6.5 0,0 1.55,2.4 2.83,2.4 1.28,0 1.96,-2.62 1.96,-2.62 0,0 -1.11,-1.98 0,-4.48 1.11,-2.5 6.02,-8.34 6.02,-8.34 0,0 0.58,0.77 0.92,1.43 0.33,0.67 -2,3.44 -2.17,5.56 -0.17,2.11 0.17,7 -0.28,8.5 -0.44,1.5 -1.83,3.17 -6,3.11 -4.17,-0.06 -7.28,-2.22 -7.39,-6 -0.11,-3.78 10.17,-14.11 13.06,-16.11 z m -15.89,7.16 c 1.44,-0.22 3.99,1.89 3.35,2.22 -0.63,0.33 -3.41,-0.94 -4.58,-0.06 -1.17,0.89 -1.72,2.22 -1.11,3.17 0.61,0.94 1.89,0.89 2.11,1.67 0.22,0.78 -0.83,1.44 -0.83,1.44 0,0 -1.22,-0.44 -2.39,-0.28 -1.17,0.17 -2.89,1.22 -2.89,1.22 l -1.39,-0.94 c -0.28,-1.39 2.22,-6.7 3.22,-6.82 1,-0.12 1,0.93 1.5,0.55 0.5,-0.39 1.56,-1.94 3,-2.17 z m -8.55,-4.89 c 3.17,-1.5 6.22,-1.17 6.22,-1.17 0,0 -4.72,3.33 -6.22,4.11 -1.5,0.78 -3.94,2.17 -3.94,2.17 l -1.39,-0.67 c 0,0 2.17,-2.94 5.33,-4.44 z m 10.44,-30.39 c -2.61,1.89 -5.42,7.86 -6.33,7.44 -1.33,-0.61 6.67,-11.11 8.8,-19.09 1.39,-5.18 0.81,-9.3 1.25,-10.75 0.57,-1.85 4.71,-2.89 5.8,-1.67 1.09,1.22 -0.8,8.89 -2.63,11.06 0.28,1.17 0.72,1.5 0.22,2.44 -0.5,0.94 -4.5,8.67 -7.11,10.56 z M 173.5,83.52 c -2.11,3.67 -10.06,13.39 -11.11,12.78 -1.06,-0.61 6.42,-9.72 7.89,-15.33 1.61,-6.17 1.11,-8.22 1.06,-10.5 -0.03,-1.16 5.67,-5.06 7.17,-4.17 1.5,0.89 -2.01,12.04 -5,17.22 z m 6.98,-28.96 -1.65,-0.65 1.83,-1.44 -0.19,2.09 z m 5.41,-11.82 c -0.06,1.33 -1.17,2.39 -1.86,2.39 -0.69,0 -1.86,-0.94 -1.86,-2.39 l 1.39,-1.67 c 0,0 2.39,0.33 2.33,1.67 z m -4.45,-6.27 c 1.44,1.11 1.89,2.83 0.33,2.78 -1.56,-0.05 -3.22,-0.67 -3.61,-1.78 -0.33,-0.95 1.83,-2.11 3.28,-1 z m -3.72,7.86 c 1,0.58 3.01,3.56 2.51,5.06 -0.5,1.5 -1.84,1.77 -2.93,1.36 -1.08,-0.41 -0.38,-1.55 -0.56,-2.27 -0.35,-1.4 -1.24,-2.04 -1.24,-2.04 0,0 1.22,-2.68 2.22,-2.11 z m -4.83,-5.53 c 1.28,0 3.5,0.83 3.11,2.33 -0.39,1.5 -3.39,2.22 -3.39,2.22 0,0 0.06,-1.56 -1,-2.56 0,0 0,-2 1.28,-2 z m -1.61,17.34 c 0.67,-0.56 1.72,-1.13 3.17,-1.18 1.45,-0.05 3.33,0.86 2.22,1.78 -1.65,1.37 -4.67,2.34 -8.7,4.52 -2.16,1.17 -6.79,-0.83 -7.02,-2.18 -0.23,-1.34 -0.78,-1.79 1.33,-2.62 2.08,-0.82 2.11,0.5 2.33,1.67 0.22,1.17 0.96,1.74 2.41,1.46 1.44,-0.27 0.93,-3.05 2.04,-3.45 1.11,-0.4 1.56,0.56 2.22,0 z m -7.06,-19.06 c 0.95,-0.33 2.94,7.67 3.67,9.11 0.72,1.44 2.52,2.44 2.52,4.11 0,0.57 -2.18,1.94 -3.38,0.94 -1.2,-1 0.19,-3.28 -0.42,-4.81 -0.61,-1.53 -3.67,-6.08 -3.72,-6.92 -0.06,-0.83 0.22,-2.06 1.33,-2.44 z m -1,13.85 c 0.17,0.71 -0.34,2.59 -3.11,1.54 -2.14,-0.81 -1.26,-3.78 -1.26,-3.78 1.26,-0.28 4.2,1.53 4.37,2.24 z m -5.89,-11.02 c 0,0 3.72,1.28 3.88,1.83 0.16,0.56 -2.21,1.28 -2.21,1.28 0,0 -2.33,-1.11 -2.5,-1.89 -0.17,-0.78 0.83,-1.22 0.83,-1.22 z m -18.22,19.67 c -1.5,1.44 -4.11,-2.22 -3.83,-4.28 h 1 c 0,0 0.33,1.06 1,1.56 0.67,0.5 3.33,1.28 1.83,2.72 z m 10.06,-9.5 c -2,-0.17 -2.67,-2.17 -4.39,-1.17 -1.72,1 0.11,5.56 -1,6.83 -1.11,1.27 -6.17,-0.44 -7.72,-6.06 -1.56,-5.61 3,-10.94 8.28,-12.22 5.28,-1.28 7.67,-0.83 8.28,0.92 0.32,0.92 -3.78,2.03 -2.94,3.81 0.83,1.78 7.61,1.39 8.17,3.44 0.56,2.06 -2.83,1 -4.5,1.56 -1.67,0.56 -2.17,3.06 -4.17,2.89 z m 3.77,1.22 c 0.56,-0.72 1.28,-1.17 1.28,-1.17 0,0 1.06,-0.08 1.28,0.79 0.22,0.87 -1.89,4.6 -2.56,4.04 -0.67,-0.56 -0.56,-2.94 0,-3.67 z m 0.06,7.67 2.52,-1.61 c 0,0 3.33,0.78 2.38,2.44 -0.95,1.66 -3.51,1.22 -4.89,-0.83 z m 0.39,34.33 c 0.5,-1.78 0.61,-4.28 1.67,-4.89 1.06,-0.61 1.68,-14.44 2.84,-15.67 0.86,-0.91 2.26,-0.89 2.82,0.39 0.56,1.28 -1.66,13.55 -4.16,15.61 -1.25,1.03 -0.37,2.61 -1.14,4.03 -1.66,3.05 -6.08,11.14 -6.91,10.8 -0.83,-0.33 4.39,-8.5 4.89,-10.28 z m -6.28,11 1,0.39 c 0,0 -1.06,3.44 -1.89,2.89 -0.83,-0.56 0.89,-3.28 0.89,-3.28 z m -3.11,6.11 c 1.58,-0.38 2.39,2.11 1.67,3.11 -0.72,1 -2.72,1.89 -3.06,0.5 -0.33,-1.39 0.22,-3.33 1.39,-3.61 z m -7.39,66.64 c -3.17,-3.42 -3.38,-9.17 -5.12,-9.58 -1.75,-0.42 -3.38,-0.58 -2.71,1.58 0.67,2.16 5.75,7.83 5.17,8.08 -0.58,0.25 -0.5,2.33 1.08,4.92 1.58,2.59 0.83,6.67 1.08,6.58 -2,-0.06 -2.99,-5.03 -4.78,-9.11 -1.95,-4.46 -3.67,-5.72 -3.97,-10.35 -0.14,-2.14 -2.42,-1.79 -1.75,-3.71 0.32,-0.92 0.81,-1.87 1.2,-2.61 l 0.97,-0.06 c 0,0 1.17,0.58 2.42,0.75 1.25,0.17 2.17,-0.93 2.92,-0.42 2.96,2.04 1.58,9.08 7.42,13.17 5.84,4.09 8.16,3.91 8,4.5 -0.38,1.38 -8.75,-0.33 -11.92,-3.75 z m 15.68,13.31 c -0.44,-0.11 -9.96,-4.28 -10.13,-5.61 -0.17,-1.33 0.89,-1 0.89,-1 0,0 10.39,4.56 10.83,5.33 0.44,0.78 -1.15,1.4 -1.59,1.29 z m 4.43,3.88 -0.64,-0.89 h 3.19 l -2.56,0.89 z M 178,189.52 c -0.72,-0.06 -6.82,-6.72 -5.7,-7.5 1.2,-0.83 3.86,3.71 6.64,5.56 1.06,0.7 -0.22,2 -0.94,1.94 z m 3.05,-13.66 c -0.33,1.67 -4.72,4.94 -6,4.39 -1.28,-0.55 -2.17,-3.94 -2.67,-5.61 -0.56,-1.87 1.67,-3.94 4.61,-3.61 2.94,0.33 4.39,3.17 4.06,4.83 z m 3.23,2.61 c -1.44,-0.56 2.41,-6.26 4,-6.28 3.44,-0.05 -2.34,6.91 -4,6.28 z"
         id="path12"
         style="fill:#231f20" />
      <path
         class="cls-1"
         d="m 130.74,189.3 c 0,0 -4.21,-3.08 -5.81,-6.22 -0.76,-1.48 -1.48,-7.45 -1.48,-7.45 L 123.12,48.01 c 0,0 0,-1.79 0.83,-4.46 0.83,-2.67 4.4,-6.64 5.16,-7.52 0.76,-0.88 0.18,-2.23 0.18,-2.23 0,0 1.17,-1.5 0.67,-2.5 -0.5,-1 -2,-2 -2,-2 h -17.89 v 0.08 c 0,0 0,-0.08 0,-0.08 H 90.68 c 0,0 -0.67,1 -1.17,2 -0.5,1 0.61,2.78 0.61,2.78 0,0 -0.59,2.12 0.17,3 0.76,0.88 4.39,4.94 5.22,7.61 0.83,2.67 1.5,8.11 1.5,8.11 l 0.7,123.67 c 0,0 0.5,3.84 -2.51,6.62 -2.59,2.39 -7.14,5.92 -7.14,5.92 0,0 -0.27,2.96 0.06,4.8 0.33,1.83 2.72,2 2.72,2 h 38.45 c 0,0 1.38,-1.08 1.71,-2.92 0.33,-1.83 -0.25,-3.58 -0.25,-3.58 z m -8.05,-3.17 c -2.5,-1.17 -10.58,-5.17 -11.08,-7.67 -0.5,-2.5 0,-8.67 0,-8.67 l 3.25,-5.83 3.08,-1.72 c 0,0 1.67,-1.72 2.75,0 1.08,1.72 0.17,2.64 0,7.56 -0.17,4.92 0.21,9.42 0.52,11.25 0.31,1.83 3.98,6.25 1.48,5.08 z m -2.64,-42.16 c 0,0 0.83,4.28 -2.28,4.13 -3.11,-0.15 -3.68,-4.99 -4.79,-6.22 -1.11,-1.24 -2.04,-3.94 -1.6,-7.92 0.44,-3.98 -0.56,-83.82 -0.56,-83.82 0,0 -0.11,-2.68 1.33,-4.81 1.44,-2.13 9.22,-7.47 10.44,-5.41 0,0 -2.11,3.63 -2.56,7.06 -0.45,3.43 0,96.99 0,96.99 z m -6.99,6.89 c -1.04,1.05 -2.29,-0.67 -3.29,-0.72 -1,-0.06 -1.66,0.83 -3.02,0.83 -1.36,0 -1.37,-0.61 -1.37,-0.61 0,0 1.94,-7 4.13,-7 1.37,0 4.82,6.22 3.55,7.5 z m -6.28,11.38 c 0.28,-0.78 0.61,-1.28 0.61,-1.28 0,0 2.17,0.67 2.61,0.72 0.44,0.06 2.05,-0.36 2.05,-0.36 l 1.22,0.37 c 0,0 -2.05,4.33 -3.28,4.22 -1.22,-0.11 -3.5,-2.89 -3.22,-3.67 z M 92.19,34.51 c -0.47,-1.27 1.96,-2.04 1.96,-2.04 h 5.17 c 0,0 6.54,0.35 9.83,0.46 3.75,0.12 16.33,-0.46 16.33,-0.46 0,0 1.59,0.24 1.08,1.5 -0.62,1.54 -5.62,1.86 -8.29,3.54 -2.67,1.68 -7,6.17 -8.38,6.17 -1.83,0 -4.16,-2.63 -6.67,-4.23 -6.29,-4.02 -10.5,-3.48 -11.04,-4.94 z m 3.75,4.21 c 1.19,-0.44 11.21,6.58 12.17,8.17 0.39,0.64 0.67,2.42 0.67,2.42 l 0.74,87.44 c 0,0 -0.14,2.27 -0.61,2.93 -0.88,1.21 -2.11,1.44 -2.67,3.11 -0.56,1.67 -0.85,4.49 -3.5,4.83 -2.65,0.34 -2.68,-1.54 -2.46,-4.26 0.22,-2.72 -0.07,-84.74 -0.07,-84.74 0,0 -0.27,-6.69 -1.89,-11.69 -1.53,-4.7 -3.57,-7.76 -2.38,-8.21 z m 4.78,135.75 c 0.09,-3.43 -0.94,-7.94 -0.11,-9.44 0.83,-1.5 2.89,-1.5 2.89,-1.5 0,0 1.11,-0.33 1.67,0.39 0.56,0.72 2.56,5.33 3.33,6.67 0.78,1.33 1.57,7.61 0.56,8.89 -2.21,2.78 -11.97,7.94 -12.33,6.61 -0.72,-2.69 3.78,-3.27 4,-11.61 z m 25.39,17.5 H 94.69 c 0,0 -2.44,0.13 -1.92,-1.21 1,-2.55 6.74,-1.23 10.94,-4.43 2.91,-2.21 4.75,-4.08 7,-4.08 2.25,0 2.7,1.56 6.75,4.26 4.05,2.71 8.89,3.11 9.64,4.24 0.75,1.13 -1,1.21 -1,1.21 z"
         id="path14"
         style="fill:#231f20" />
    </g>
  </g>
</svg>
