<?xml version="1.0" encoding="UTF-8"?>
<svg id="LETTER" xmlns="http://www.w3.org/2000/svg" viewBox="0 0 687.9 223">
  <defs>
    <style>
      .cls-1 {
        fill: #231f20;
      }
    </style>
  </defs>
  <g>
    <path class="cls-1" d="M196.78,23.2H24.44c-1.56,0-2.83,1.27-2.83,2.83v172.33c0,1.56,1.27,2.83,2.83,2.83h172.33c1.56,0,2.83-1.27,2.83-2.83V26.03c0-1.56-1.27-2.83-2.83-2.83ZM197.22,195.98c0,1.56-1.27,2.83-2.83,2.83H26.83c-1.56,0-2.83-1.27-2.83-2.83V28.42c0-1.56,1.27-2.83,2.83-2.83h167.56c1.56,0,2.83,1.27,2.83,2.83v167.56Z"/>
    <path class="cls-1" d="M200.56,18.58H20.66c-2.03,0-3.67,1.64-3.67,3.67v179.89c0,2.03,1.64,3.67,3.67,3.67h179.89c2.03,0,3.67-1.64,3.67-3.67V22.25c0-2.03-1.64-3.67-3.67-3.67ZM201.82,199.74c0,2.03-1.64,3.67-3.67,3.67H23.07c-2.03,0-3.67-1.64-3.67-3.67V24.65c0-2.03,1.64-3.67,3.67-3.67h175.08c2.03,0,3.67,1.64,3.67,3.67v175.08Z"/>
    <path class="cls-1" d="M96.77,150.58s-1.13-2.08-2.26-2.05c-.72.02-1.38-.02-1.93-.08-.49-1.43-1.2-3.68-1.61-5.77-1.12-5.79-3.37-8.83-4.2-10.12-1.13-1.76-1.34-3.47-1.38-4.09,0-.09.23-3.43.38-4.5.25-1.75-2.78-3.41-1.55-5.06,2.08-2.79.16-5.25,1.69-10.89,0,0,.21-1.61.75-2.95.32.16.63.39.85.76.27.44-.57,3.44-.24,10.78.17,3.72,1.25,11.81,3.7,18.47,2.11,5.75,1.93,7,2.34,8.53.46,1.72.75,3.64,1.82,3.47,1.19-.19.03-2.69-1.14-8.97-.7-3.76-2.91-9.02-3.92-13.94-1.18-5.76-1.58-12.19-.57-16.92,1.11-5.13-.05-6.31,5.45-13.75l-3.31-.14s-6.76,6.64-6.89,11c-.32.93-.61,1.82-1.16,1.69-1.32-.32.96-8.51.96-11.62s-3.27-6.29-5.67-6.17c-5.46.29-5.67,5-2.33,4.54,0,0,2-2,3.5-1.04,3.09,1.97-.17,11.08.91,16.7.33,1.7-.53,1.32-1.62,1.43-3.42.21-4.5-2.62-4.25-2.96.39-.52,1.68,1.29,2.33.79,1.09-.83-1.1-2.12-1.25-2.87-.79-3.96-4.98-8.01-7.17-16.42-2.56-9.86-3.51-12.6-3.8-13.76-.29-1.17.29-1.79,3-3.46l-.57-.21c.89-1.41,2.53-3.91,2.96-3.75,1.72.67-.31,4.5,1.56,4.67,2.14.19,4.16-4.69,2.33-7.72-1.01-1.68-1.82-1.87-2.74-3.33-.92-1.46-1.89-4.32-.76-4.51.62-.1,1.23,1.76,2.83,3.17.96.85,2.57,1.22,3.94,1.78.58.24.12,3.28-.33,3.61-2.11,3.06-2.88,9.86.33,13.44,3.21,3.58,8.86,2.13,10.56,1.5,1.7-.63,4.26-2.18,5.11-3.78.97-1.82-.1-5.83-1.72-6.83s-4.36-1.32-5.61.39c-1.25,1.71.78,2.89.78,2.89,0,0,2.26-.76,3.56.78,1.29,1.54.22,3.5-2.83,3.72-4.53.33-7.85-1.93-7.06-6.68.79-4.75,4.5-8.24,7.34-11.65,1.29-1.55-.02-4.25.5-6.28.41-1.59,1.99-3.43,1.6-4.64-.96-2.92-.65-5.86-2.48-7.86-.86-.94-4-5.06-10.22-6.28-9.23-1.81-13.72,3.61-16.33,3.22-.87-.13-1.69-4.06-2.11-4.56-.42-.5-3.67-3.83-3.67-3.83,0,0-1.21-.01-1,2.61.21,2.62-.27,9.24-1.17,9.17-1.44-.11-1.47-2.42-2.06-4.33-.58-1.92.76-3.15.72-4.78-.04-1.62-5.28-4.94-6.72-1.28-.41,1.03,5.94,2.39,2.5,5.28,0,0-2.78-2.61-7.97-1.85-1.95.29-4.09-4.04-6.14-4.6-3.67-.99-7.02,1.43-6.61,3.87.22,1.33.84,2.91,2.95,1.63.73-.44.17-2.28,1.33-2.33,3.99-.19,4.44,3.36,4.78,4.11.5,1.11-2.05,3.23-2.78,5.11-.56,1.45-1.1,3.1-3.56,4.56-2.46,1.46-2.89,3.5-3.26,7.11.93,2.83,2.29,4.54,3.37,4.17s-.4-2.18-.28-3.72c.12-1.54,1.91-2.86,2.72-2.78,1.57.17,1.35.89,1.89,2.06.54,1.17,2.78,4.56,2.78,4.56,0,0,.67,2.28.39,4.02-.1.62.3,1.13.8,1.52.29,2.35-.31,5.19,3.68,14.08,3.41,7.61,15.94,24.34,18.53,26.99,3.17,3.24,6.07,7.39,6.88,8.58,3.92,5.83,6.61,6.5,7.14,8.39.6,2.14-1.51-.47-8.89-5.06-5.77-3.58-7.88-5.25-10.12-7.19-2.14-1.85-1.25-2.76.16-3.68,1.58-1.04,2.62-1.38.88-2.79-1.3-1.05-2.73-.4-3.64.4-2.27,1.98-2.33,5.13-.44,7.1,2.63,2.74,6.51,6.09,13.04,9.54,2.51,1.33,9.19,5.01,7.72,6.19-.13-.04-.26-.08-.4-.12-4.15-1.24-6-2.97-9.99-3.49-2.54-.33-8.22-.31-10.83-.42-2.61-.11-3.43-2.28-7.04-5.33-1.49-1.26-3.37-3.99-4.71-6.33-3.67-6.44-2.27-9.37-2.27-9.37,0,0-6.67-.28-4.22-4.33,3.6-5.97,7.75-5.54,10.41-1l-1.38,1.88s-2.99,1.54-3.08,3.17c.71,2.33,5.06-.12,5.58-1.29,1.08-2.46,2.61-3.33-.83-7.5-1.35-1.64-3.05-2.31-4.83-2.19-.39-.53-2.04-2.89-1.01-3.56,1.17-.75,1.58-8.83-2.33-10.58-3.92-1.75-7.92,2.08-8,4.58-.08,2.5,3,3.08,3,3.08,0,0,1.42-.83,1.67-.97.25-.14-1.33-2.78,1.04-3.86,2.38-1.08,3.46,3.25,2.96,5.95-.49,2.64-2.42,3.69-3.67,8.91-.57.62-1.11,1.3-1.62,2.06,0,0-2.76.89-3.38,1.45-.61.56.41,1.65,1.02,2.78.15.27-.95,2.63,1,6.89.77,1.67,1.62,6.47,3.9,10.47s3.54,7.03,6.71,10.62c1.06,1.2-3.06,4.88-3.79,7.27-.72,2.39-2.71,6.29-2.34,7.23,1.42,3.58.79,7.17,1.12,8.21.33,1.03,1.11.92,1.06,2.64s2.86,8.57,4.19,9.24c1.33.67,2.53.61,5.08,1,2.56.39,5.92,2.35,9.42,1.96,3.5-.39,6.47-2.71,8.42-3.54,1.94-.83,4.96-2.49,6.96-3.38,2-.89,1.57-3.56,1.79-4.33.22-.78,1.5-1.9,1.79-2.79.29-.89-.56-5.71-.83-8.21s-.25-3.5.92-3.92h.55c2.82,2.87,8.38,8.64,9.03,10.08,1.47,3.28-3.01,3.72-3.25,6.83s2.83,5.77,4.25,6.39c1.39.61.64,1.36.97,1.97-4.39,8.64-7.14,11.83-12.31,13.91-3.73,1.5-6.42.34-8.78-2.75-.23-.31-.06-2.52.14-2.89,1.17-2.17,3.69-.14,3.69-.14,0,0,1.33-1.46,1.47-2.31.22-1.31-1.73-2.59-3.31-2.56-3.06.05-4.19,2.5-4.32,5.67-.31,7.12,3.65,10.16,5.08,10.69,2.69,1,.39,2.58-6.17,2.31-5.76-.24-8.97-1.53-9.53-2.06-.56-.53-.03-2.17.72-3.75,2.5-2.72,2.92-6.73,1.97-8.14-3.06-4.53-6.25-5.88-9.22-6.25-2.84-.36-3.63.9-5.21,2.35-1.39,1.28-2.93,1.93-3.55,2.4-1.33,1-2.69-2.46-4.92-9.5-1.62-5.12.62-12.39.62-12.39,0,0,1.12-6.33.33-7.83s-3.78-4.06-5.44-2.39c-1.67,1.67-1.04,3.96-1.04,3.96,0,0,2.69.5,3.21,1.43,2.17,3.89-4.16,15.69-3.06,20.67.83,3.75,3.64,7.39,3.56,9.39s.76,3.85,3.22,5.89c2.15,1.79,3.12,6.45,4.6,8.19.26.31-1.1.83-1.66,1.69-.29.44,1.56,3.39-.97,2.56-.53-.18-.73-2.73-1.19-2.92-2.79-1.12-2.71-3.36-3.89-5.17-.76-1.17-2.62-.75-2.62-.75,0,0-2.71,2.08-1.02,6.08,1.59,3.75,5.92,5.36,7.64,5.83,2.84.78,8.83-.31,11.08-.39,2.25-.08,3.36,2.47,15.61,2.81,12.25.33,18.31-6.82,19.69-6.5,3.39.78,3.5,5.53,5.47,5.56,1.39.02,2.22-7.78,2.94-9.67.36-.94,2.67-3.67,4.08-7.67,1.33-3.78,2.66-8.15,3.03-8.48.75-.67,1.22-5.97,1.22-5.97l.26-1.25,1.23.23.06-.74.94-12.01-2.75.17ZM32.11,170.76s-1.38-2.29-1.58-3.13c-.21-.83-.38-1.98-.38-1.98,0,0,1.92,1.65,2.25,2.81.33,1.17-.29,2.29-.29,2.29ZM42.32,168.63c1.83-.41,1.42-1.09,2.12-1.17.71-.08,2.25.04,2.25.04v.7s-2.83.18-3.96,1.05-1.4,1.92-1.97,1.25c-.57-.67-.28-1.47,1.55-1.88ZM39.36,181.59c-.12,0-5.29-6.08-5.46-6.92s0-1.67,0-1.67l7.25,8.58h-1.79ZM46.65,179.88c-1.28.56-5.5-2.15-5.83-3.82-.33-1.67.85-4.1,3.79-4.43,2.94-.33,4.21,2.05,4.21,3.42,0,1.74-.89,4.27-2.17,4.83ZM51.07,174.63l1.38.5-.96,1.33-.42-1.83ZM62.03,191.47c-2.83-.12-2.29-2.92-4.67-2.08-1.08.38.96,1.25.54,1.83-.42.58-1.79.31-1.88-1.42s-1.88-2.25-1.88-2.25l1.12-1.04s3.79,1.46,5.75,1.79,8.21-.9,8.21-.9c0,0-4.38,4.19-7.21,4.06ZM65.39,85.61c1.47,1.68,2.38,3.64,2.39,6.33,0,1.85,5.18,7.17,3.42,8.58-.7.56-2.57-4.12-4.23-7.17-.37-.69-1.83-1.67-2.67-3.67-.89-2.11-1.12-5.28-1.81-5.75-2.14-1.47-.83-3-1.44-4.22-1.33-2.65-2.33-5.42-1.42-6.64.84-1.12,2.5-1.19,3.36-.28,1.16,1.22,1.59,11.89,2.39,12.81ZM70.44,105.74c-.91.42-10.75-15.04-12.36-17.83-1.83-3.17-4.42-4.31-5.54-7.53-.35-1.01-4.59-11.96-3.07-12.56.89-.35,7.13,2.79,7.69,4.64.44,1.44.03,4.08,2.25,11.97,1.84,6.52,10.84,18.64,11.75,20.97.2.51-.48.22-.72.33ZM65.07,67.88c-.23,1.34-2.42,2.5-4.58,1.33-2.18-1.18-4.28-1.16-5.52-2.08-1.05-.78.23-2.54-2.1-3.17-1.39-.37-1.16-1.57.29-1.51,1.45.06,4.23,1.86,5.35,2.22,3.65,1.17,5.64-.18,7.77.5.92.29-.98,1.36-1.21,2.71ZM60.9,57.27s-.29,2.86-1.38,2.78-3.25-1.82-3.08-2.55c.46-2.04,1.92-2.22,1.92-2.22l2.54,2ZM59.15,51.05c.17-.71.36-1.53,1.62-1.25,0,0,3.31,1.6,1.17,2.39-1.33.49-2.96-.43-2.79-1.14ZM63.72,60.58c-.45-.79-.04-2.34,1-2.83,1.16-.55,3,0,3,0l.61,2.3c-2.4,1.2-3.66,2.2-4.61.53ZM67.01,54.23c-.83-.26-1.21-1.51-.98-2.39.22-.87,1.28-.79,1.28-.79,0,0,.72.44,1.28,1.17.56.72-.08,2.48-1.57,2.01ZM86.11,55.28c.91.72-2.92,5.78-4.72,7.06-.99.7-.33-2.02-.86-2.53-1.5-1.44,1.54-1.73,2.2-2.23s1.04-2.3,1.04-2.3c0,0,.92-1.11,2.33,0ZM64.48,44.13c1.48-.33,3.44.17,3.93-.65,1-1.69-1.2-2.79-.88-3.71.61-1.75,4.47-1.86,9.75-.58s8.65,6.05,7.09,11.66c-1.56,5.61-5.89,5.7-7,4.43-1.11-1.28.86-3.69-1.08-4.15-1.18-.28-1.62.35-3.62.52-2,.17-2.22-3.07-3.89-3.62s-4.57.78-5.94-1.72c-.46-.84.43-1.9,1.64-2.17ZM60.28,41.58s3.06-.56,2.89.22c-.17.78-2.16,1.94-2.16,1.94,0,0-1.86.94-3.06,4.06-.74,1.93-3.79,2-2.51-.11,1.78-2.93,4.83-6.11,4.83-6.11ZM52.65,46.43c2.48-3.46,2.48-6.08,4.11-7.24.96-.68,1.24,1.14,1.18,1.97-.06.83-2.98,3.2-3.94,6.25-.49,1.57-2.29.33-1.35-.99ZM51.28,55.76c.71.04,1.62.67,1.71,1.33.08.67-4.3,4.3-5.79,2.96-1.21-1.09.36-5.14.36-5.14l.68.37s-.75,1.99.79,2.46,1.54-2.02,2.25-1.98ZM48.32,39.19c1.28,0,1.28,2,1.28,2-1.06,1-1.2,1.95-1.2,1.95,0,0-2.8-.11-3.19-1.61-.39-1.5,1.83-2.33,3.11-2.33ZM45.07,46.26c-.11,1.45-1.21,1.29-2.04,2.42-.7.94-1.58.16-2.08-1.34-.5-1.5.34-1.71,1.34-2.29,1-.58,2.85.27,2.78,1.21ZM42.49,57.22l-.21,1.04-.94-1.04h1.15ZM37.84,46.19c-.69,0-1.81-1.06-1.86-2.39-.06-1.33,2.09-2.04,2.09-2.04l1.58,1.21c0,1.44-1.11,3.22-1.8,3.22ZM40.54,36.79c1.44-1.11,2.77.45,2.44,1.39-.39,1.11-.36.84-1.92.89s-1.96-1.17-.52-2.29ZM73.2,115.74c-3.87-3.48-23.25-29.26-25.33-32.57-5.64-8.98-8.77-19.97-7.27-20.86,1.5-.89,6.15,2.6,6.13,3.76-.06,2.28,2.02,12.18,5.17,17.73,2.34,4.13,6.35,9.35,9.9,14.36,3.07,4.34,5.67,8.52,8.08,11.69,2.19,2.88,4.39,4.87,4.53,5.49.02.09-.89.69-1.22.4ZM62.42,130.52c1.05-.28,1.28,1.22,2.89,1.5,1.61.28,4.78,3.94,4.64,5.14-.14,1.19-2.39.72-2.83.75-.44.03-1.33.92-1.81-.78-.47-1.69,1.64-2.44.28-3.42-1.36-.97-3.17-.38-3.61-1.34-.44-.96-.39-1.63.44-1.85ZM40.11,120.74c.33-.67,1.19-.42,1.19-.42,0,0,4.64,5.3,7.97,9.94,2.03,2.83,3.25,5.41,3.62,6.38.58,1.52-.28,3.01-.28,3.01,0,0-.17,3.72,2.06,3.89,1.27.1,3.02-1.28,3.17-2.53s-2.64-6.97-5.08-10.36c-2.44-3.39-7.56-9.91-7.56-9.91h1.08s4.33,4.86,7.22,6.86c1.71,1.18,6.19,6.72,6.19,7.97,0,2.57,2.39,3.4,2.47,4.94.19,3.81-.91,3.03-2.2,4.28-1.37,1.33-3.17,2.59-4.89,2.78-4.14.45-6.53-3.39-6.97-4.89-.44-1.5.08-7.56-1.39-10.94-.84-1.94-6.94-10.33-6.61-11ZM42.69,133.16s1.44.33,1.21,1.5c-.24,1.16-2.68,1.9-2.73,3.51-.06,1.61,1.14.66,1.36,2.27.22,1.61-3.56,3.67-3.56-.28,0-3.12,3.22-7.39,3.72-7ZM53.36,158.41c-2,.76-2.96.77-6.68.55-3.72-.22-5.23-2.58-5.84-3.97-.61-1.39-.87-3.72-1.28-5.19-.41-1.49.18-2.83,1.25-3.47.78-.46.74-1.62,1.54-1.64,2.56-.06,5.77,1,2.18,4.28-1.14,1.04-1.29,4.43.78,4.83,4.39.86,4.75-2.58,6.75-2.75s3.14,3.31,4.01,4.17c.69.68-.7,2.43-2.7,3.19ZM68.55,153.29c-2.11,1.46-1.49,2.9-5.97,3.01-1.5.04-2.81.21-3.75-1.17s-1.75-4.28,1.31-4.75c1.87-.29,3.93,1.3,5.71-.98,1.78-2.28-1.88-4.35-1.54-6.16.36-1.92,1.98-2.12,3.42-1.67,1.68.53,2.44.61,3.11,2.19.67,1.58.56,7.55-2.28,9.52ZM69.97,131.8c-1.03-.86-.86-.97-.86-.97l.72-.17,2.22,1.64s-1.06.36-2.08-.5ZM75.94,130.61c-1.52.36-3.47-1.17-4.28-2.42,0,0,1-.58,1.72-.11.72.47,3.17,2.38,2.56,2.53ZM83.36,142.72c-.62-.69-3.33-3.56-5.39-5.75.16-.57.45-1.2.92-1.22,1.22-.06,2.85,1.68,7.1,4.68,3.04,2.14,3.61,6.43,3.71,8.41-.23.44-.6.97-1.1.99-2.91.14-2.24-3.78-5.24-7.11ZM74.49,187.01c-.44.11-3.36,0-2.91-.79.44-.78,4.79-2.8,4.79-2.8,0,0,1.03-.29,1.25.88,0,0-2.68,2.6-3.12,2.71ZM93.25,170.27c-.14,6.28-2.22,6.05-4.36,10.58-1.02,2.16-2.78,8.39-4.42,7.19-1.37-1,.29-1.7,1.39-4.53,1.22-3.14,1.75-4.33,1.39-5.5-.09-.28-.33-2.77,1.16-4.21,2.53-2.44,3.31-3.89,3.68-5.07.67-2.17-2.58-2.64-4.36-.22-1.07,1.45,1.11,2.78-2.86,7.81-.34.44-2.76,1-3.81,1.69-1.2.8-1.08,1.72-1.94,1.65-3-.25-6.11,3.21-6.59,1.16-.14-.59,2.28-.26,8-4.5,4.98-3.69,4.75-10.35,7.7-12.39.74-.51,1.5-.36,2.75-.53,1.25-.17,2.56-1.17,2.56-1.17l.28.05c.21.64.51,1.66.5,3-.03,2.14-1.01,2.83-1.06,4.97Z"/>
    <path class="cls-1" d="M190.74,137.05c1-.38,5.67-.46,5.67-.46,0,0,.62-2.29-1.04-3.96s-7,1.33-7.79,2.83c-.79,1.5,0,6,0,6,0,0,3.5,13.62,1.88,18.75-2.23,7.04-3.58,10.5-4.92,9.5s-6.25-5.81-11.46-4.38c-6.21,1.71-5.46,9.04-5.46,9.04,0,0-.83,5.83,1.33,7.17.75,1.58.08,3,.08,3,0,0-3.5,2.92-9.25,2.5s-10.67-2.08-9.92-3.42c.75-1.33,5.75-.92,8.67-7.42s-3.58-11.5-6.25-10-2.9,2.58-2.49,3.33.7,1.65,3.04.61,4.04,1.51,3.7,2.43c-1.28,3.41-5,5.54-8.88,4.46-7.56-2.11-9.79-4.33-11.46-14,1.67-1.58,1.25-2.75,1.25-2.75,2.5-1,1.5-3.92,1.5-3.92-2.08-1.5-2.5-4.5-1.75-6.5s7.46-12.79,7.46-12.79l-1.88-.12s-6.33,11.17-7.75,11.75c-1.42.58-1.75,1.25-2.58,1.08-.44-.09-.78-.51-1.02-.9.25-2.16,1.16-7.44,4.13-9.93,3.78-3.17,8-4.56,8.56-3.89.56.67.94,1.28.94,1.28l2.11-.28c.56.89-1.44,5.06-1.72,7.56s1.53,3.94,1.82,4.83c.29.89-.49,1.56-.26,2.33s3.06,6.78,5.06,7.67c2,.89,2.44.22,4.39,1.06,1.94.83,3.72,2.61,7.22,3s7.44-1,10-1.39c2.56-.39,4,.11,5.33-.56,1.33-.67,5.56-6.94,5.5-8.67-.06-1.72-.33-1.54,0-2.58.33-1.03,1.22-.7,1.39-1.7.17-1,.39-9.06-.33-11.44-.72-2.39-6.56-9.61-6-11.11.85-2.29,4.17-4.11,6.44-8.11s1.5-4.67,2.28-5.06c2.06-1.22,2.12-4.77,2.89-6.44,1.95-4.26.85-6.62,1-6.89.61-1.13,2.5-4.17,1.89-4.72-.61-.56-3.89-.44-3.89-.44-3.72-5.56-10.11-7.72-13.56-3.56-3.44,4.17-2,8.67-.94,9.39,1.06.72,3.44,1.94,4.33,1.17.89-.78,3.78-3.56.89-5.67-1.17.28-2.22.94-2.22.94l-1.72-1.72c2.17-4.28,7.18-4.25,10.78,1.72,2.44,4.06-4.22,4.33-4.22,4.33,0,0,.22,3.94-3.44,10.39-1.33,2.34-6.44,10.72-9.06,10.83-2.61.11-8.22-.33-10.78-.44-.6-.03-2.25.38-4.41,1.01-2.76-.5-3.55-1.07-2.43-1.51,11.45-4.54,12.7-5.57,15.33-8.31,1.9-1.98,4.23-8-.33-9.92-3.7-1.56-6.8.82-5.83,2.17,1.6,2.22,2.08-.28,3.72.11,1.64.39,2.98,2.22,1.29,4.49-1.64,2.21-5.09,5.07-11.43,7.51-6.33,2.44-10.4,6.86-11.65,5.03-2-2.92,3.58-7.67,4.83-9.65.75.24,1.19,3.1,2.04,1.93.85-1.17,4.82-7.04,7.99-10.28,2.6-2.65,14.9-14.42,18.32-22.03,4.33-9.65,3.35-14.99,3.89-17.98.04-.12.77-2.13,2.14-2.65,1.42-.54,1.75-1.62,1.75-1.62,0,0-.29-6.79.25-7.96.54-1.17,1.83-3.25,2.58-2.92.75.33,3.38,1.38,3.5,2.92.12,1.54-1.42,4.17-.33,4.54,1.08.38,2.12-1.92,3.42-2.96,1.38-3.42.38-7.04-2.08-8.5-2.46-1.46-5.33-1.92-5.12-3.46.21-1.54-2.17-3.62-1.83-4.38.33-.75-.29-4.92,3.67-5.46,3.96-.54,3.67,1.62,4.5,1.83.83.21,3.54-.62,1.88-2.46-1.67-1.83-7.42-3.92-10-1.12-2.58,2.79-4.29,4.08-4.29,4.08-2.38-1.29-6.88.17-6.88.17-1.71-1.21-1.21-4.17-2.29-4.42s-2.67.67-2.71,2.29c-.04,1.62,1.79,2.25,1.21,4.17-.58,1.92-.67,3-1.54,3.21s-3.92-3.83-3.71-6.46-.58-3.12-.58-3.12l-1.75.08s-1.64.06-2.36,2.49c-.25.85-1.93,1.64-1.93,1.64l-.29.79s-6-4.42-15.17-2.29c-9.17,2.12-10.71,10.17-10.96,11.42s-1.62,2.08-1.62,2.08c0,0,.67,4.5.83,7.38.17,2.88-.29,3.42.38,5,.67,1.58,6.75,5.75,7.54,10.5.79,4.75-1.71,8.58-6.25,8.46-4.54-.12-5.13-2.5-3.83-4.04,1.29-1.54,4.61-.88,4.61-.88,0,0,2.3-.46,1.05-2.17s-4.04-2.12-5.67-1.12-4.67,3.25-3.25,7.54c1.42,4.29,6.88,5.33,6.88,5.33,1.21-.71,5.5-.04,8.71-3.62,3.21-3.58,2.62-12.29,1.96-13.58-.46-.33-.96-1-.58-1.5s3.38-3.46,4.46-3.08c1.08.38,1.92.71,1,2.17-.92,1.46-3.62,2.42-3.79,4.38s1.25,7.12,3.12,7.08c1.88-.04,2.08-2.88,2.71-2.83.56.04,2.58,1.28,3.02,1.55,1.79,1.18,2.19,1.79,1.94,2.78-.29,1.17-1,10.12-4.83,17.92-3.83,7.79-6.75,11.71-6.92,12.46-.17.75.92,1.17-.25,1.88-1.17.71-2.83,3.33-2.83,3.33-.5-.58-1.65.19-1-1.42,1.74-4.28-2.05-15.6.74-17.97,2.79-2.38,6.11-.2,6.11-.2,1.56-2.11-2.78-4.78-5.11-4.22-2.33.56-4.5,2.89-4.33,8.5.09,3.11,2,12.72.89,13.5-1.11.78-2.78,0-2.78,0-1.78,5.22.36,8.31,1.32,10.47.83,1.87-2.79,5.62-2.54,7.38.1.72,1.23,1.81,1.99,2.48-.03.74-.18,2.4-.77,3.41-.78,1.32-2.91,3.29-4.18,6.51-.99,2.5-1.43,7.47-1.59,9.59l-1.32.69c-1.05-1.39-1.98-1.67-1.03-4.13.57-1.48-.11-6.2,2-11.94,2.44-6.67,3.97-13.83,4.14-17.56.33-7.33-1.08-8.33,0-9.5s2.75-1,2.75-1c-1.42-8.17-10.75-11-10.75-11v3c5.5,3.25,5.08,5.25,6,10.42.49,2.78.1,9.44-1.08,15.19-1.01,4.92-2.73,8.87-3.42,12.64-1.5,8.17-1.5,11.5-1.5,12.58,0,.56-.45,1.76-.89,2.78l-.36.14-2.75-.17.94,12.01.06.74.49-.03-.91,5.61s2.34.03,2.58,1c.81,3.19,4.63,12.22,7.69,17.14.25,4.42.31,9.86,3.31,9.86s2.75-4.83,4-5.5c1.25-.67,11.17,6.33,23.42,6,12.25-.33,13.92-4.33,16.17-4.25,2.25.08,3.17,1.17,3.67,1.17s1.33-1.08,1.83-1.08,1.67,1.5,2.08,1.33c.42-.17,2.71-1.25,5.08-3.67,2.15-2.19,1.83-8.17,1.83-8.17l-2.08.25s-2.38,5.21-4.29,5.79c-1.92.58-5.21.46-3.96-1.46,1.25-1.92,2.76-6.21,4.92-8,2.46-2.04,4.38-4.83,4.29-6.83s.21-3.93,2.29-7.17c2.24-3.48-2.9-12.98-3.75-18.17-.92-5.62-1.46-9.54-.46-9.92ZM162.94,149.43c-.94,1.37.26,3.64-.5,4.93-1.28,2.17-7.83,1.41-9.94-.06-2.84-1.97-3.22-5-3.61-10.33,0,0,5.56-3.07,6.89-1.78,1.33,1.28-3.39,4.23-1.61,6.51,1.78,2.28,4.78-1.44,6.67-1.39,1.89.06,3.06.76,2.11,2.13ZM178.33,154.8c-.61,1.39-1.28,3.22-5,3.44s-7.61-2.06-7.61-2.06v-6.06s.39-1.61,2.39-1.44c2,.17,4.28,5.83,6.28,5.17,2-.67,1.67-4.28.72-5.5-.94-1.22,0-4.44,2.56-4.39,2.56.06,4.67,4.83,4.67,4.83,0,0-3.39,4.61-4,6ZM182.94,139.91c0,3.94-5.72,1.89-5.5.28.22-1.61,1.83-1.02,1.78-2.63-.06-1.61-1.39-3.09-1.39-3.09l.11-1.17c.5-.39,5,3.5,5,6.61ZM173.33,123.36c2.89-2,4.61-5.17,4.61-5.17l1.56.39s-9.33,11.44-11.78,14.83c-2.44,3.39-3.33,6.5-3.33,6.5,0,0,1.55,2.4,2.83,2.4s1.96-2.62,1.96-2.62c0,0-1.11-1.98,0-4.48,1.11-2.5,6.02-8.34,6.02-8.34,0,0,.58.77.92,1.43.33.67-2,3.44-2.17,5.56-.17,2.11.17,7-.28,8.5-.44,1.5-1.83,3.17-6,3.11-4.17-.06-7.28-2.22-7.39-6s10.17-14.11,13.06-16.11ZM157.44,130.52c1.44-.22,3.99,1.89,3.35,2.22-.63.33-3.41-.94-4.58-.06-1.17.89-1.72,2.22-1.11,3.17.61.94,1.89.89,2.11,1.67s-.83,1.44-.83,1.44c0,0-1.22-.44-2.39-.28-1.17.17-2.89,1.22-2.89,1.22l-1.39-.94c-.28-1.39,2.22-6.7,3.22-6.82,1-.12,1,.93,1.5.55.5-.39,1.56-1.94,3-2.17ZM148.89,125.63c3.17-1.5,6.22-1.17,6.22-1.17,0,0-4.72,3.33-6.22,4.11s-3.94,2.17-3.94,2.17l-1.39-.67s2.17-2.94,5.33-4.44ZM159.33,95.24c-2.61,1.89-5.42,7.86-6.33,7.44-1.33-.61,6.67-11.11,8.8-19.09,1.39-5.18.81-9.3,1.25-10.75.57-1.85,4.71-2.89,5.8-1.67,1.09,1.22-.8,8.89-2.63,11.06.28,1.17.72,1.5.22,2.44-.5.94-4.5,8.67-7.11,10.56ZM173.5,83.52c-2.11,3.67-10.06,13.39-11.11,12.78-1.06-.61,6.42-9.72,7.89-15.33,1.61-6.17,1.11-8.22,1.06-10.5-.03-1.16,5.67-5.06,7.17-4.17,1.5.89-2.01,12.04-5,17.22ZM180.48,54.56l-1.65-.65,1.83-1.44-.19,2.09ZM185.89,42.74c-.06,1.33-1.17,2.39-1.86,2.39s-1.86-.94-1.86-2.39l1.39-1.67s2.39.33,2.33,1.67ZM181.44,36.47c1.44,1.11,1.89,2.83.33,2.78s-3.22-.67-3.61-1.78c-.33-.95,1.83-2.11,3.28-1ZM177.72,44.33c1,.58,3.01,3.56,2.51,5.06-.5,1.5-1.84,1.77-2.93,1.36-1.08-.41-.38-1.55-.56-2.27-.35-1.4-1.24-2.04-1.24-2.04,0,0,1.22-2.68,2.22-2.11ZM172.89,38.8c1.28,0,3.5.83,3.11,2.33-.39,1.5-3.39,2.22-3.39,2.22,0,0,.06-1.56-1-2.56,0,0,0-2,1.28-2ZM171.28,56.14c.67-.56,1.72-1.13,3.17-1.18s3.33.86,2.22,1.78c-1.65,1.37-4.67,2.34-8.7,4.52-2.16,1.17-6.79-.83-7.02-2.18-.23-1.34-.78-1.79,1.33-2.62,2.08-.82,2.11.5,2.33,1.67.22,1.17.96,1.74,2.41,1.46,1.44-.27.93-3.05,2.04-3.45,1.11-.4,1.56.56,2.22,0ZM164.22,37.08c.95-.33,2.94,7.67,3.67,9.11.72,1.44,2.52,2.44,2.52,4.11,0,.57-2.18,1.94-3.38.94-1.2-1,.19-3.28-.42-4.81-.61-1.53-3.67-6.08-3.72-6.92-.06-.83.22-2.06,1.33-2.44ZM163.22,50.93c.17.71-.34,2.59-3.11,1.54-2.14-.81-1.26-3.78-1.26-3.78,1.26-.28,4.2,1.53,4.37,2.24ZM157.33,39.91s3.72,1.28,3.88,1.83c.16.56-2.21,1.28-2.21,1.28,0,0-2.33-1.11-2.5-1.89-.17-.78.83-1.22.83-1.22ZM139.11,59.58c-1.5,1.44-4.11-2.22-3.83-4.28h1s.33,1.06,1,1.56,3.33,1.28,1.83,2.72ZM149.17,50.08c-2-.17-2.67-2.17-4.39-1.17s.11,5.56-1,6.83-6.17-.44-7.72-6.06c-1.56-5.61,3-10.94,8.28-12.22s7.67-.83,8.28.92c.32.92-3.78,2.03-2.94,3.81.83,1.78,7.61,1.39,8.17,3.44.56,2.06-2.83,1-4.5,1.56-1.67.56-2.17,3.06-4.17,2.89ZM152.94,51.3c.56-.72,1.28-1.17,1.28-1.17,0,0,1.06-.08,1.28.79s-1.89,4.6-2.56,4.04c-.67-.56-.56-2.94,0-3.67ZM153,58.97l2.52-1.61s3.33.78,2.38,2.44-3.51,1.22-4.89-.83ZM153.39,93.3c.5-1.78.61-4.28,1.67-4.89,1.06-.61,1.68-14.44,2.84-15.67.86-.91,2.26-.89,2.82.39.56,1.28-1.66,13.55-4.16,15.61-1.25,1.03-.37,2.61-1.14,4.03-1.66,3.05-6.08,11.14-6.91,10.8-.83-.33,4.39-8.5,4.89-10.28ZM147.11,104.3l1,.39s-1.06,3.44-1.89,2.89c-.83-.56.89-3.28.89-3.28ZM144,110.41c1.58-.38,2.39,2.11,1.67,3.11-.72,1-2.72,1.89-3.06.5-.33-1.39.22-3.33,1.39-3.61ZM136.61,177.05c-3.17-3.42-3.38-9.17-5.12-9.58-1.75-.42-3.38-.58-2.71,1.58s5.75,7.83,5.17,8.08c-.58.25-.5,2.33,1.08,4.92s.83,6.67,1.08,6.58c-2-.06-2.99-5.03-4.78-9.11-1.95-4.46-3.67-5.72-3.97-10.35-.14-2.14-2.42-1.79-1.75-3.71.32-.92.81-1.87,1.2-2.61l.97-.06s1.17.58,2.42.75,2.17-.93,2.92-.42c2.96,2.04,1.58,9.08,7.42,13.17s8.16,3.91,8,4.5c-.38,1.38-8.75-.33-11.92-3.75ZM152.29,190.36c-.44-.11-9.96-4.28-10.13-5.61s.89-1,.89-1c0,0,10.39,4.56,10.83,5.33.44.78-1.15,1.4-1.59,1.29ZM156.72,194.24l-.64-.89h3.19l-2.56.89ZM178,189.52c-.72-.06-6.82-6.72-5.7-7.5,1.2-.83,3.86,3.71,6.64,5.56,1.06.7-.22,2-.94,1.94ZM181.05,175.86c-.33,1.67-4.72,4.94-6,4.39s-2.17-3.94-2.67-5.61c-.56-1.87,1.67-3.94,4.61-3.61s4.39,3.17,4.06,4.83ZM184.28,178.47c-1.44-.56,2.41-6.26,4-6.28,3.44-.05-2.34,6.91-4,6.28Z"/>
    <path class="cls-1" d="M130.74,189.3s-4.21-3.08-5.81-6.22c-.76-1.48-1.48-7.45-1.48-7.45l-.33-127.62s0-1.79.83-4.46c.83-2.67,4.4-6.64,5.16-7.52.76-.88.18-2.23.18-2.23,0,0,1.17-1.5.67-2.5s-2-2-2-2h-17.89v.08s0-.08,0-.08h-19.39s-.67,1-1.17,2,.61,2.78.61,2.78c0,0-.59,2.12.17,3s4.39,4.94,5.22,7.61c.83,2.67,1.5,8.11,1.5,8.11l.7,123.67s.5,3.84-2.51,6.62c-2.59,2.39-7.14,5.92-7.14,5.92,0,0-.27,2.96.06,4.8.33,1.83,2.72,2,2.72,2h38.45s1.38-1.08,1.71-2.92c.33-1.83-.25-3.58-.25-3.58ZM122.69,186.13c-2.5-1.17-10.58-5.17-11.08-7.67s0-8.67,0-8.67l3.25-5.83,3.08-1.72s1.67-1.72,2.75,0c1.08,1.72.17,2.64,0,7.56-.17,4.92.21,9.42.52,11.25s3.98,6.25,1.48,5.08ZM120.05,143.97s.83,4.28-2.28,4.13-3.68-4.99-4.79-6.22c-1.11-1.24-2.04-3.94-1.6-7.92.44-3.98-.56-83.82-.56-83.82,0,0-.11-2.68,1.33-4.81,1.44-2.13,9.22-7.47,10.44-5.41,0,0-2.11,3.63-2.56,7.06s0,96.99,0,96.99ZM113.06,150.86c-1.04,1.05-2.29-.67-3.29-.72-1-.06-1.66.83-3.02.83s-1.37-.61-1.37-.61c0,0,1.94-7,4.13-7,1.37,0,4.82,6.22,3.55,7.5ZM106.78,162.24c.28-.78.61-1.28.61-1.28,0,0,2.17.67,2.61.72.44.06,2.05-.36,2.05-.36l1.22.37s-2.05,4.33-3.28,4.22c-1.22-.11-3.5-2.89-3.22-3.67ZM92.19,34.51c-.47-1.27,1.96-2.04,1.96-2.04h5.17s6.54.35,9.83.46c3.75.12,16.33-.46,16.33-.46,0,0,1.59.24,1.08,1.5-.62,1.54-5.62,1.86-8.29,3.54-2.67,1.68-7,6.17-8.38,6.17-1.83,0-4.16-2.63-6.67-4.23-6.29-4.02-10.5-3.48-11.04-4.94ZM95.94,38.72c1.19-.44,11.21,6.58,12.17,8.17.39.64.67,2.42.67,2.42l.74,87.44s-.14,2.27-.61,2.93c-.88,1.21-2.11,1.44-2.67,3.11-.56,1.67-.85,4.49-3.5,4.83-2.65.34-2.68-1.54-2.46-4.26s-.07-84.74-.07-84.74c0,0-.27-6.69-1.89-11.69-1.53-4.7-3.57-7.76-2.38-8.21ZM100.72,174.47c.09-3.43-.94-7.94-.11-9.44.83-1.5,2.89-1.5,2.89-1.5,0,0,1.11-.33,1.67.39.56.72,2.56,5.33,3.33,6.67.78,1.33,1.57,7.61.56,8.89-2.21,2.78-11.97,7.94-12.33,6.61-.72-2.69,3.78-3.27,4-11.61ZM126.11,191.97h-31.42s-2.44.13-1.92-1.21c1-2.55,6.74-1.23,10.94-4.43,2.91-2.21,4.75-4.08,7-4.08s2.7,1.56,6.75,4.26c4.05,2.71,8.89,3.11,9.64,4.24s-1,1.21-1,1.21Z"/>
  </g>
  <g>
    <path class="cls-1" d="M429.22,23.2h-172.33c-1.56,0-2.83,1.27-2.83,2.83v172.33c0,1.56,1.27,2.83,2.83,2.83h172.33c1.56,0,2.83-1.27,2.83-2.83V26.03c0-1.56-1.27-2.83-2.83-2.83ZM429.66,195.98c0,1.56-1.27,2.83-2.83,2.83h-167.56c-1.56,0-2.83-1.27-2.83-2.83V28.42c0-1.56,1.27-2.83,2.83-2.83h167.56c1.56,0,2.83,1.27,2.83,2.83v167.56Z"/>
    <path class="cls-1" d="M432.99,18.58h-179.89c-2.03,0-3.67,1.64-3.67,3.67v179.89c0,2.03,1.64,3.67,3.67,3.67h179.89c2.03,0,3.67-1.64,3.67-3.67V22.25c0-2.03-1.64-3.67-3.67-3.67ZM434.26,199.74c0,2.03-1.64,3.67-3.67,3.67h-175.08c-2.03,0-3.67-1.64-3.67-3.67V24.65c0-2.03,1.64-3.67,3.67-3.67h175.08c2.03,0,3.67,1.64,3.67,3.67v175.08Z"/>
    <path class="cls-1" d="M386.34,38.13l2.17-4.67s-3.42-2.67-4.42-2.42-1.08,2.08-4.75.75c-3.67-1.33-11-3.5-15.33-3-4.33.5-10,6.08-10.83,5.67-.83-.42-.88-7.21-4.21-7.29-3.33-.08-3.39,8.56-5.34,8.62-3.33.09-3.66-8.74-6.08-8.74-1.25,0-3.29,2.75-3.54,3.75s.91,2.42,0,2.75c-2.12.77-7.69-4.34-13.65-4.81-7.62-.6-13.35,1.23-15.69,1.4-2.33.17-6.92-.5-7.33.42-.42.92,1.5,4.75,3.25,4.92s4.17,1.39,2.9,3.54c-1.41,2.39-.48,4.13-1.32,4.96-.83.83-3.25-.08-3.25-.08l8.08,11.5s-.83-7.33,0-7.08c.83.25,3.08,6.5,9,6.25,5.92-.25,7.42-3.08,8-2.92.58.17-.25,5.42.58,8.17s3.17,12.03,1.67,12.44c-2.78.77-2.89.16-2.61,1.64.19.99-4.06-1.17-4.06-1.17l24.04,32.67,18.21-26.17s-3.92,3.44-6.83,1.36c-2.92-2.08-1.69-2.9-2.03-4.25-.33-1.35-3.64.22-4.47-3.11-.83-3.33,3-9.33,4.42-7.17,1.42,2.17.17,5.65.25,6.7.08,1.05,1,.13,1.42,1.22s1.58,2.75,4.17,1.92c2.58-.83,2.67-3.83,2.67-3.83,0,0-5,.5-4.33-1.75s2.59-3.43,2.93-4.59c2.9-9.91,1.82-14.07,2.65-14.16.83-.08,2.5,2.33,6,1.75,1.97-.33,6.36-1.42,8.5-3.33.79-.71,3.1.73,3.1.73l5.31-11.32s-4.71,1.17-4.33-1.25c.38-2.42,5.08,0,5.08,0ZM349.21,92.98c0-.71,1.33,1.1.88,1.89-.46.79-1.33,1.12-1.62,0s.75-1,.75-1.89ZM370.76,35.02c.1-.6,4.22,1.53,2.94,2.61-1.28,1.08-1.36-.7-1.92-1.34s-1.11-.77-1.03-1.27ZM358.59,34.11c2.04-1.03,5.17-2.85,6.5-2.39,1.33.45,2.52,1.45.71,1.95-2.5.69-3.25.12-4.88.69-.85.29-3.67,2.98-4.25,2.69-.91-.46-.12-1.9,1.92-2.93ZM354.89,46.82c.58.19,2.69,1.5,2.03,1.72-.67.22-1.97-.69-2.53-.58-.56.11-1.11.44-1.58-.25-.43-.63,1.5-1.08,2.08-.89ZM348.63,37.42c1.59-.55,4.12,1.29,3.88,1.75-.25.46-2.67-.92-3.46-.33-.79.58-1.04,1.37-.67,2.1.38.73,2.83.65,2.79,1.94-.04,1.29-3.85,1.33-4.55.12-.7-1.21.68-5.12,2.01-5.58ZM345.67,62.47c.46,1.16-.71-.04-1.38,0-.67.04-3.92.75-4.05,0-.22-1.32,4.97-1.16,5.43,0ZM341.67,70.08c-.62,0-.83-3.46-.29-3.62.6-.18.27,1.75.57,2.08.3.33.33,1.54-.29,1.54ZM337.55,60.25c.71,1.12,2,.71,1.78,1.46-.22.75-3.95,1.08-4.78.33-.83-.75,1.91-5.12,3.62-5.17,1.14-.03-1.33,2.25-.62,3.38ZM338.01,53.29c-.88-.67.83-1.33.12-2.38-.71-1.04-1.46-.46-1.58-1.62-.12-1.14,3.35-.04,3.69,1.42.35,1.46-1.36,3.25-2.24,2.58ZM334.39,39.17c.22-.66,4.53-1.79,5.28-1.21s2.12,4.92,1.12,5.04-.71-3.17-1.75-3.54c-1.04-.38-2.3,1.12-2.17,2.17.13,1.04,1.74.92,1.54,1.38-.2.45-.87,1.33-1.37,1-.49-.33-2.93-4-2.65-4.83ZM333.88,52.71c2.87,1.71-2.13,4.29-2.13,4.29,0,0,1.88-2.84,0-3.09s-2.37.96-3.62.46c0,0,1.1-4.44,5.75-1.67ZM329.21,62.47c-1.54.12-3.17-5.02-1.75-5.12,1.42-.1,3.58-.6,3.83-.18.25.42-2.5,2.08-2.5,2.88s.42,2.42.42,2.42ZM332.13,47.01c.41.56-1.5,1.82-2.21,1.25-.84-.67,1.37-2.38,2.21-1.25ZM317.88,31.29c1.27-.92.46.35,1.96.42,1.5.08,4.96.54,4.96,1.52s-5.33,1.1-6.25.56c-.92-.54-1.07-2.21-.67-2.5ZM313.21,35.17c.92.38,1.25,1.48-.54,1.57,0,0-.38-1.95.54-1.57ZM309.8,33.75c-.38.29-.92,1.21-1.54.96s-1.08-.21-1.08-.96c0-.82,1.42-.67,2.17-.92s1.71-1.62,2.21-.92c.5.71-1.37,1.54-1.75,1.83ZM324.8,45.46c-.42-1.08-2.08-5.08-5.54-5.38-3.46-.29-3.62,1.5-3.21,1.75.42.25,2.21,2.81,2.33,3.74.12.93-.21,2.22-1.5,2.47-1.29.25-3.38-.29-5.21-3.75-.88-1.65,3.12-1.17,3-2.71s.42-4.25,3.71-4.75c3.29-.5,9.38,1,11.58,3.79,2.54,3.21-.92,2.25-1.83,2.92-.92.67-3.01,2.75-3.33,1.92ZM333.88,76.42c-.5,1.25-1.19,4.45-3.49,4.61-1.38.1-.92,1.1-1.72.68-.79-.42-4.25-3.21-4.46-4.58-.23-1.5,1.79-.54,3.42-1.42s4.88-4.71,4.75-5.96-1.33-3.08.54-4c1.88-.92,3.67-.83,4.21.46.54,1.29.64,2.08,1.64,3.21s.61,4.54-1.27,4.92c-1.88.37-3.12.83-3.62,2.08ZM339.71,95.17c-1.41,1.35-2.25-.25-2.21-2,.02-.68,3.62.65,2.21,2ZM338.17,80.08c.21-1.08,5.93-.83,5.92.33,0,1.17-6.13.75-5.92-.33ZM345.21,98.33c-.42.79-1.62,1.46-2.16.38-.54-1.08-.47-4.12.58-5.29,1.05-1.17,1.3.38,1.3.38.62,1.17.71,3.74.29,4.53ZM345.26,71.38c-1.33-.29.21-4.88.83-4.75,1.01.2.5,5.04-.83,4.75ZM345.89,53.12c.19-.48.53-1.95,1.45-2.41,0,0-.29,1.19.12,1.69s.74,1.69.74,1.69c0,0-2.5-.49-2.31-.97ZM350.55,59.67c-.54.29-2.83-1.13-2.25-2.09.51-.83,1.5.79,1.75.79s1.04,1.01.5,1.29ZM357.87,61.9c-.36.03-.82-1-.82-1l-6.02-6s-.79-2.83,1.72-3.44c2.51-.61,6.37,3.16,4.7,2.94-1.67-.22-3.94-1.11-3.83,0,.11,1.11,2.37,3.92,3.43,3.64,1.07-.28,1.34.22,1.48.75.14.53-.3,3.08-.66,3.11ZM358.76,50.57c-.56.08-1-.67-.86-1.19.09-.32,1.28-.22,1.5.25s-.08.86-.64.94ZM374.06,45.54c-.85.86-1.61.44-2.19.97s-.67,1.07-1.64,1.16c-.97.08-3.56.4-3.72-1.94-.17-2.33,1.25-.94,1.36-2.42.11-1.47.44-2.67-1.14-2.86s-5.33,1.28-5.63,3.17c-.31,1.89.39,4.33.11,4.47-.28.14-4.33-3.89-4.64-4.77-.57-1.67,2.96-7.36,8.75-6.88,7.58.63,4.77,6.6,5.44,6.99,1.77,1.05,2.86-.82,3.2-.78.4.05.61,2.39.12,2.89Z"/>
    <path class="cls-1" d="M395.26,63.04c-.32,1.59-1.96,2.29-2.96,1.04s0-2.92,0-2.92l-6.83,11.04s1.25-1.24,2.5-.67c2.17,1,2.1,4.23,3.23,5.98s3.56,1.15,3.98,1.9c.42.75.75,2,.75,2l2.29-8.58-2.96-9.79ZM393.63,75c-1.25-.46-4.75-7.54-3.17-8.17,1.28-.5.46,1.62,2.29,2.92,1.83,1.29,5.58,2.84,4.67,4.07-.92,1.23-2.54,1.64-3.79,1.18Z"/>
    <path class="cls-1" d="M391.92,170.71c.33-4.79,6.67-6.33,4.71-21.75-.93-7.32-7.07-12.5-13.26-15.92-.41-1.03-.78-2.47.46-2.42,1.92.08,11.25-6.67,11.13-16.67s-2.71-11.25-2.46-14.75,3.24-6.2,1.92-7.75c-2.45-2.87-6.67,4.83-8.25,4.5-1.58-.33-4.75-3.33-4.08-7.75s3.37-5.21,5.75-.92c2.8,5.05,5.21-1.75,3.62-4.96-.66-1.33-3.28-4.09-4.5-3.67-2.29.79-6.46.29-6.46.29l-4.88,8.38s2.12.25,1.71,1.67c-.22.74-.79.83-.71,2.42.08,1.58,2.79,6.21,1.46,6.71s-9.23,1.88-10.21,4.75c-.54,1.58.75,1.17-.71,3.17-1.1,1.51-3.58,6.83-3.25,9.83.33,3,1.5,3.33.67,4.83s-5.17,3.5-4.92,1.42c.25-2.08-.71-2.62-.71-2.62,0,0-2.12.62-2.54,2.46-.42,1.83,2.17,4.24,5.17,4.24,3,0,5.08-3.74,7.25-3.83,2.17-.08,4.62,1.71,9.29-.12,4.67-1.83,6.92-5.42,5.75-8.5-1.17-3.08-5.04-3.88-5.04-3.88l-.17,2.32s1.83,1.1,1.25,2.35c-.58,1.25-4,3.58-5.5,2.5-1.5-1.08-3.58-4.83-5.17-3.75-1.58,1.08,1,3.17,1,3.17l-.75.42s-3.62-1-1.39-6.85c2.25,1.42,3.98-.74,4.89-2.4.92-1.67,5.33-4.92,11.5-.58,6.17,4.33,4.67,10.67,2.17,13.75-2.5,3.08-6.5,5.91-9.17,5.41-2.24-.42-6.51.97-7.83,1.43-.01,0-.04,0-.04,0l-.37.15h0s-12.34,5.1-12.34,5.1c0,0-5,1.39-6.92-.35-1.92-1.74-.75-3.57-.75-3.57l-5.42,4.58-9.41-2.59s1.38,2.17-.12,3.09c-1.5.92-19.47-8.08-23.47-7.83-1.09.07-2.1.59-3.01,1.32-2.55-.6-9.33-3.04-9.46-11.87-.17-10.89,10.11-11.28,13.72-8.06s3.01,7.4-.33,9.51c-3.33,2.11-5.9.16-6.34-1.84-.44-2,2.83-2.37,2.83-2.37,0,0,1.5-3.16-2.22-2.78-3.72.39-5.33,5.92-1.33,10.81s10.78,2.33,12.22,2.11c1.44-.22,7.37,8.37,10.33,2.22.72-1.5-1.89-4-1.89-4,0,0-1.33.89-1.67,2.54-.21,1.04-3.05-1.04-3.6-2.81s1.05-3.06,1.23-3.88c.75-3.27,2.66-1.17,2.66-1.17l-26.67-36.72s.22,1.84-.39,2.67c-.61.83-2.06,2.06-2.89,3.78-.83,1.72,1.33,4.44.39,5.11-.94.67-.22-.61-2-.89s-2.11,1.83-2.5,3c-.39,1.17,3.69,2.72,4.08,5.67.39,2.94-3.42,15.28-1.53,21.44,1.89,6.17,9.78,10.06,10.39,11.89.2.61.22,1.12.16,1.54-.87.65-3.04,1.16-3.02,2.03.04,2.43,2.5,1.18,2,2.02s-5.21,4.54-5.88,8.21c-.67,3.67,1.61,8.52,1.12,8.62-1.92.42-1.08-3-2.25-4-1.17-1-2.25-.42-2.25-.42,0,0-.33-3.21,2.92-6.71s3.92-5.04,3-5.96c-.92-.92-5.84,3.82-7.17,8.17-1.29,4.25-3.08,9.79-2.5,12.79.58,3,4.12,12.25,2.29,13.83-1.83,1.58-2.67.29-3.23.88-.56.58-.56,2.5-.56,2.5,0,0,4.5,2.83,7.17,1.42,2.67-1.42,1.54-4.29,4.21-4.29s4.33,1.58,7.88,3.04c2.33.96,1.96-.5,3.46,1.08,1.5,1.58,2.71,6.96,1.24,9.39-1.89,3.13.83,3.05-.37,4.69-3.33,4.58-12.92-.83-9.25-4.58,2.91-2.97,2.75,2.75,5.08,1.96,2.33-.8,2.17-3.8.75-5-1.42-1.21-4.08-2.96-5.92-2.04-1.83.92-4.75,3.83-4.67,7.92s8.6,14.68,19.25,4.58c5.75-5.45,2.67-14.32,4.92-15.46,2.79-1.42,7.5-6.04,7.77-9.05.21-2.41,2.12-2.68,2.11-4.74-.02-3-1.75-3.84-1.92-4.84-.17-1-.42-4.2-2-5.03-1.58-.83-3.58-4.42-4.67-4.92-1.08-.5-4.88-2-7.62-2.5s-3.75,1.12-5,1.71-3.25.17-4.58,1.17-2.5,4.67-3.75,4.17-2.79-4.75-2.54-7.12c.44-4.19,7.54-9.88,8.88-8.62,1.33,1.25-2.03,5.61.17,6.54,3.42,1.46,2.69-2,6.75-3.96,1.21-.58,3.24-1.67,5.79-1.21,2.94.53,6.52,2.84,8.42,5.25,1.91,2.43-2.42-.08-4.17,1.5s6.3,5.37,7.72,9.04,3.79,7.38,2.83,9.38c-.46.96-3.04,1.79-3.21,4.29s4.55,8.05,2.67,9.12c-1.75,1-1.42,2.71-2.5,2.71s-4.96,1.03-4.96,3.31,2.42,2.28,2.33,4.53c-.08,2.25-.96,5.08-.12,6.33.83,1.25,4.46,1.62,5.75,1.5,1.29-.12,5.08-.29,5.08-.29l1.49-.29s9.8.89,11.38.17,3.57-2.05,3.24-3.52c-.33-1.47-.85-3.14.12-4.6.97-1.46,3.47-4.96,2.39-6.38s-5.54.54-6.71-3.12c-1.17-3.67-1.12-3.58,1.17-5.92,1.02-1.04,1.89-3.5-1.38-7.38-2.46-2.92,2.29-13.37,4.92-14.58,1.56-.72,3.04-1.42,3.88-2.17s1.33-1.67.83-2.25c-.5-.58-5.12.42-5.12.42,0,0-1.83-.08-1.42-.75.42-.67,1.25-2,2.67-2.25,1.42-.25,3.58.21,4.04-.46.46-.67-1.34-1.54.54-3.12,1.88-1.58,6.25-1.79,9.33-.54,3.42,1.39,3.5,4.29,5.17,4.62.68.14,1.8-.66,1.75-1.75-.04-.91-1.67-3.42-.08-4.17,1.41-.67,8.54,2.92,9.21,9.29.51,4.85-1.82,5.51-1.83,6.54-.04,2.42,2.44,2.16,3.27,3.07.83.92-.92,5.1-1.87,4.15-.85-.85-3.44-6.02-3.19-7.18.25-1.17.58-2.21-.5-3.04-1.08-.83-3.99-.81-4.65-1.98-.67-1.17-3.97-3.48-6.68-3.35-1.34.06-4.71,2.67-6.21,2.33-1.5-.33-4.88,2.5-6.12,4.83s-.58,3.58-1.87,4.72c-.92.82-2.72,2.7-2.55,4.11.17,1.42,1.08,4.75,3.31,8.45,3.11,5.17,8.16,7.18,8.16,8.76s-.81,12.37,2.36,15.2c3.17,2.83,9.25,4.33,14.88-.42,4.4-3.71,4.58-14.14-3.67-13.33-7.21.71-3.21,9-1.21,8s-.58-3.8.42-4.19,5-.77,4,3.23-8.96,5.21-9.54,2.96c-.58-2.25.71-2.33.12-4.25-.58-1.92-1-5.87,2.42-8.12,3.42-2.25,7.67-5.62,9.67-4.96,2,.67,3.08,2.71,5.92,2.79,2.83.08,4.81-1.46,3.96-3.08-1.31-2.5-4.7.2-4.54-2.12ZM371.2,118.68c.74-.69,3.64,1.03,2.78,1.36-.86.33-3.67-.53-2.78-1.36ZM370.62,104.54c-.83-2.03,2.75-2.03,2.94-1.36.32,1.11-2.37,2.75-2.94,1.36ZM387.12,105.08c-1.33.6-2.83-2.45-4.69-2.67-1.86-.23-3.47.56-3.33-1.06.12-1.39,4.46-1.23,5.17-.26.69.94,4.19,3.38,2.85,3.99ZM389.23,123.21c-.28-.25-.06-1.44.36-1.58.42-.14.92.14.92.14.44.44-1,1.69-1.28,1.44ZM391.86,108.21c.11.8.11,4.08-.25,4.16-.36.08-.56.69-.69.17-.14-.53.03-2.18-.28-2.43s-1.06-.74-.06-1.82c1-1.08,1.28-.08,1.28-.08ZM389.7,98.02c1.1-.11.69,3.61.89,3.83s1.03.54.61.94c-.42.4-1.22.51-1.69-.94-.47-1.44-.89-3.72.19-3.83ZM317.28,111.65c.54-.35,1.94,2.85,1.02,4.12-1.12,1.56-2.42,2.21-3.04,3.04-.62.83-1.1,1.83-2.12,1.58-1.02-.25,3.46-3.67,3.94-5.17.48-1.5-.38-3.21.21-3.58ZM303.61,101.48c.42-.21,1.38-1.21,2.56-.98,1.19.23,1.1,1.43.86,1.63-.33.27-1.27.41-1.92.49-.65.08-1.71.11-2.27.44-.56.33-.88,1.83-1.92,1.12-.72-.49.6-2.36,1.17-2.58.78-.31,1.1.08,1.52-.12ZM301.45,86.54c.85-.04,1.38,1.77.33,1.77s-1.58-1.71-.33-1.77ZM299.38,93.04c1.06-.08,2.96-1.35,3.29-1.21.33.15.32,3.12-1.43,3.75s-3.06-.29-3.12-2.54c-.03-.99.21.08,1.27,0ZM294.78,164.35c-1.1.16-1.89-4.79-2.08-6.73-.13-1.24-1.25-3.05-.31-3.36.82-.27.56,1.56.83,2.14.28.58,2.36,5.33,2.42,5.94.06.61.21,1.84-.86,2ZM317.76,166.52c-.21.92-.09,3.47-1.22,2.94-1.03-.48,1-2.92.75-3.92s-2.17-2.84-2.92-2.33c-.75.5-3.12,2.04-2.86,3.08,1.08,4.39,2.69,4.58,2.78,5.44.08.86.47,3.29-.31,3.22-1.28-.11-3.56-7.11-3.75-9.25-.11-1.19-1.16-2.21-.47-3.86.94-2.25,2.95-2.53,4.56-2.72,1.79-.22,4.96,2.29,4.97,3.61.01,3.67-1.33,2.92-1.53,3.78ZM321.06,173.16c-.69-.42-.46-1.49-.31-1.56.25-.12,1.28-.36,1.36.69.08,1.06-.36,1.29-1.06.87ZM325.34,157.63c1.01.05.42,1.33.94,2.47.53,1.14,1.69,2.92,1.69,3.69s-2.39,5.03-3.56,5c-1.17-.03-2.5-.92-2.69-1.72-.19-.81.64-2.58.56-4.53-.06-1.49-.96-2.47-.58-3,.38-.53,2.02-2,3.63-1.92ZM307.2,153.1c.17-1.15,1.72-.56,3.03-1.25,1.31-.69,2.28-1.69,3.83-1.78,1.56-.08,3.86,1.28,4.81,1.69.94.42,2.97.42,3.36,1.89.39,1.47-2.47,3.58-3.72,3.19-1.25-.39-3.61-1.15-4.75-1.19-3.36-.14-3.33,1.54-4.31,1.24-.97-.3-2.78-.24-2.25-3.8ZM305.28,158.52c.77-.33,1.32.97,1.58,1.92.25.89-.72,2-.58,3.14.14,1.14.96,4.86-.46,5.22-1.42.36-3.87-2.39-3.73-5.42s2.36-4.5,3.19-4.86ZM299.89,159.99c.03.39-.89,1.25-1.08,1.11-.19-.14-.47-1.11-.11-1.42.35-.29,1.17-.08,1.19.31ZM311.88,134.1c-.96-.08-2.01-.73-1.93-1.23.08-.49.67-.33.69-1.02.03-.84,1,.31,1.33.39.33.08,1.03-.17,1.03.25s-.17,1.69-1.12,1.61ZM316.34,136.9c-.42.14-1.33.64-1.56.33-.2-.27.42-1.75,1.75-1.81,1.33-.06,2.11.64,2.06,1.08-.06.44-1.83.25-2.25.39ZM321.34,133.04c-.47.03-.86-.56-1.25-.47-.39.08-1.5.22-1.72-.03s-1.08-.61-1.06-1c.05-.68,1.42.55,1.81.64.39.08,1.19-.62,1.83-.35.64.27.86,1.18.39,1.21ZM326.05,135.5c-.3-.18-.03-.91-.03-.91.25-.47,1.48-.24,1.42.69-.03.44-1.25.3-1.39.22ZM345.64,160.82c.39-3.28,2.72-1.89,2.94-3.33s1.83-2.44,1.83-2.44c0,0,.39,1.17,0,2.28-.39,1.11-1.17,1.33-1.22,2.22-.06.89-.39,3.83-.39,3.83,0,0-3.56.72-3.17-2.56ZM343.34,140.42c1.25,0,.97,1.54,0,1.54s-1.25-1.54,0-1.54ZM335.76,155.04s8.22,5.89,5,7.67-5-7.67-5-7.67ZM336.71,172.17c-.58,0-.54-.96,0-.88.54.08.58.88,0,.88ZM332.7,143.1c1.06-.5,5.72,3.78,6.22,2.11s-.61-2.78.22-3.39c1.4-1.03,2.44,6.44-1.56,6.11s-5.94-4.33-4.89-4.83ZM340.06,189.21c-.03.83.17,3.75-.31,3.92-.47.17-6.61-.19-6.3-1.17.31-.97.23-3.38.23-3.38.58-1.22,5.16-3.27,6.77-1.48,1,1.11-.36,1.28-.39,2.11ZM337.45,181.93c-.47-.34.56-4.97,1.94-5.14,1.39-.17,2.72-.14,2.78.92.06,1.06-4.31,4.53-4.72,4.22ZM344.03,173.85c-.86.06-1.72-.56-1.64-.92.11-.48,1.31.19,1.69,0s.64-.72,1.11-.31c.47.42-.31,1.17-1.17,1.22ZM345.53,178.96c-.42-.81-.08-2.25-.08-2.25.81-.87,2.67-.7,3.56.55.89,1.25.22,2.17.61,2.72.39.56,1.56,1.06.67,1.69-.41.29-1.03-1.53-2-1.92-.97-.39-2.34,0-2.75-.8ZM353.62,187.04c.58.92-.56,1.56-.81,2.36s.25,2.72-.56,3.22c-.81.5-1.5-.08-2.33.06-.83.14-1.47.69-2.61-.03-1.14-.72,0-2.22-.67-3-.67-.78-1.22-1.78-.56-3.06.77-1.47,6.94-.47,7.53.44ZM348.71,147.81c-2.62-.96-2.71-5.29-.33-6.09,1.1-.37-2.18,3.54.93,4.04,3.11.5,1.26-2.7,5.05-3.43,1.4-.27-3.03,6.44-5.65,5.48ZM362.92,166.85c-.33.03-.75-1-1.22-1s-1.89-.31-2.36-1.75c-.47-1.44-.11-2.89.78-3.69.89-.81,1.78-3.17,2.83-3.19,1.14-.03,1.72,2.67,1.75,3.86.03,1.19.03,4.36-.36,4.81s-1.08.94-1.42.97ZM368.23,172.65c-.11.66-2.22,1.14-3.28-.65-1.06-1.79,1.11-2.76,1.75-2.68,1.1.14,1.64,2.68,1.53,3.33ZM376.53,163.95c-.06,2.09-.75,6.29-1.56,7.81-.27.51-1.27.07-1.22-.18.89-5.47,2.44-6.1,1.67-7.8-1.03-2.28-3.92-1.52-4.06.16-.14,1.68,1,1.62.92,2.62-.08,1-.49,2.24-2.03.92-1.44-1.25-.25-1.25-1-2.44-.75-1.19-1.49-3-1.36-3.89.31-2.14,2.11-3.69,5.11-3.5s3.61,3.51,3.53,6.3ZM378.84,156.15c-1.75-.19-3.89-1.94-5.75-1.97s-5.36,1.31-6.61.75-1.5-2.19-.78-2.86c.91-.84.97-.14,2.33-.75,1.36-.61,4.08-2.61,5.83-2.61s4.03,3.31,4.72,3.58c.69.28,2.06.25,2.11.89.06.64-.11,3.17-1.86,2.97ZM384.98,165.93c-.67,1.08-2.11,2.42-3.28,2.47-1.17.06-1.72-1.67-1.83-2.47-.11-.81-.11-5.5.33-6.08.44-.58,1.33-1.47,1.78-1.39,1.75.33,1.11,2.03,1.67,3.03s2,3.36,1.33,4.44ZM365.87,133.54c-.86-.06-1.19-.78-1.28-1.17-.14-.66,3.36-.92,3.58-.5.22.42-1.44,1.72-2.31,1.67ZM372.84,136.4c-1.06.44-3.81-.61-3.81-1.14,0-.57,1.47-1.25,1.97-1.22.5.03,2.89,1.92,1.83,2.36ZM388.67,141.24c-.72-1.12-3.86-4.19-6.03-5.11-1.38-.58-3.45-2.11-4.22-2.25-.78-.14-6.36-.33-4.36-3.25.68-.99,4.55,2.6,5.79,2.55,1.23-.05,6.79,4.39,8.91,6.12,2.11,1.72,3.69,6.05,2.58,6.33-1.72.44-1.28-2.22-2.67-4.39ZM390.37,152.21c.39-.64.27-1.07.44-1.28.39-.45,1.19,1.22.64,1.78-.56.56-1.45.11-1.08-.5ZM391.23,163.79c-.42-.64-.31-3.42.41-4.08.73-.67,2.12-4.08,2.46-4.63.32-.52.94-.54,1.32-.23.27.22-.72,1.05-.84,2.03-.11.97-.06,3.25-1.08,4.69-1.03,1.44-1.86,2.86-2.28,2.22Z"/>
    <path class="cls-1" d="M261.48,105.77c.89-.44,5.33,7.84,4.78,9.8s-4.05,3.96-5.17,1.92c-1.44-2.61.73-4.62.62-5.87s-1.1-3.13-.91-4.02.69-1.83.69-1.83Z"/>
    <path class="cls-1" d="M262.11,82.03c1.36-.32,3.82.8,4.51,1.22,1.15.7,1.58,2.46,1.58,2.46l.17-4.75c-1.72-.36-4.48-1.21-4.37-3.8.04-.84,2.19.95,4.44,1.72l1.14-31.57s-3.5-8.61-8.56-7.33-2.33,8.28-.78,8.06c1.56-.22,3-.44,1.58-2.78-1.42-2.33,2.08-1.56,3.58.39s-1.52,10.92-4.85,13.64c-3.33,2.72-5.09,8.31-5.09,8.31v22.11s1.34-2.81,1.9-3.3c.66-.57,1.67-.87,1.73.08.06.94,2.87,1.55,2.87,4.22,0,3.78-1.61,2.01-1.89,5.39-.17,2.06,1.67,2.72,1.72,4.37.06,1.65-.67,1.35-.2,3.35.47,2,3.31,3.59,3.79,2.98.76-.96,1.74.53,1.74.53l.28-1.94s-1.32-.65-1.26-2.09c.06-1.44-1.95-1.37-1.93-3.32.02-2.23,1.91-1.47,2.07-3.97.16-2.5-1.33-3.11-1.83-3.5-.5-.39-.17-2.28-.11-3.22.06-.94,1.43-1.67,1.1-3.4-.33-1.72-3.59-1.72-3.86-2.39-.31-.77.15-1.36.51-1.45ZM267.88,51.5s.92.17,1.08,1.38c.17,1.21-1.08,2.25-1.08,2.25v-3.62ZM262.53,68.29c.76-3.83,4.26-5.25,4.26-5.25.96-.12,2.54,1.88,1.75,2.46-.79.58-3.25.42-3.21,1.88.04,1.46,3.03,2.34,3.17,4.21.14,1.87-.41,3.46-1.46,3.38-1.04-.08-5.28-2.83-4.52-6.67ZM258.38,80.58c-.88-.67-.79-5.29,0-5.62.96-.41.67,1.04,1.33,1.79s1.75,1.25,1.71,1.71c-.04.46-2.17,2.79-3.04,2.12Z"/>
    <path class="cls-1" d="M430.37,59.71s-1.28,1.11-2.5.5c-1.22-.61-.44-2.61-2.89-4.67-2.44-2.06-5.81-6.06-4.92-9.67.89-3.61,3.7-2.49,4.59-1.72.89.78,1.94,1.44,2.44.94s-.02-3.51-2.67-4.5c-3.56-1.33-7.17,3.78-7.17,3.78l.16,5.24c.1-.2.27-.31.59-.32.93-.03.31,1.81.75,2.67.44.86,2.11,2.56,1.14,3.22s-2.24-1.89-2.41-3.39h0s.79,25.86.79,25.86c.12-.05.24-.09.35-.14,2.03-.86,4.28-2.28,4.63-1.78.35.5-1.07,2.86-2.99,3.75-.52.24-1.19.44-1.91.58l1.25,40.98s1.06-2.89,2.44-3.44c1.39-.56,3.78,1.17,4.5-2,.72-3.17-1.06-3.44-.94-6.11.11-2.67,1.56-3.33,1.61-5.22.06-1.89-1.83-3.44-1.78-5.22.06-1.78,1.7-2.24,1.7-4.19,0-1.94-.81-2.65-.93-4.31-.11-1.67.83-2.56.83-3.94,0-1.39,3.89-.83,3.89-.83l-.56-26.06ZM423.3,58.67c.5-.75,2.68,2.4,2.4,2.67-.28.28-2.14-1.38-2.97-1.72-.68-.28.57-.95.57-.95ZM419.42,73.57c-.94-1.42-.47-3.44.31-4.28.78-.83,3.57-2.17,2.5-4.36-.63-1.28-1.84.44-2.79.49-.94.06-2.07-3.26.09-3.98,1.45-.48,3.86,1.55,4.17,2.6.31,1.06.28,4.14,0,4.97-.28.83-3.33,5.97-4.28,4.56ZM421.81,110.88c-1.06.33-2.06-4.14-1.39-4.54,1.22-.73,2.44,4.21,1.39,4.54ZM423.7,106.26c-.5-.16-1.22-1.49-.78-2.11.58-.79,2.17-.39,2.22.39.06.78-.94,1.88-1.44,1.72ZM423.31,93.96c.28-.52.17-1.02.78-1.08.52-.05,1.28,2.11.44,2.17-.83.06-1.5-.56-1.22-1.09ZM426.03,84.1c-1.78,1.33-4.39.83-4.22,2.5.17,1.67,1.06,2.39.97,3.44-.08,1.06-2.51,2.78-2.58,4-.06,1.22,2.88,4.61,2.88,5.94s-2.11,2.39-2.11,3.06.23,1.44.23,1.44h-1.28l-.67-19.89s-.06-.94.39-1.39,4.79-3.38,5.11-3.28c1.24.39,3.06,2.84,1.28,4.17ZM428.78,78.63c-.89.81-2.69-.06-2.83-1.31-.42-3.56,1.25-3.53,1.31-4.31.06-.78.14-1.17.14-1.17.67-.28,1.67,1.75,1.03,3.06-.64,1.31,1.25,2.92.36,3.72Z"/>
    <path class="cls-1" d="M288.26,67.38l-1.05,8.4c1.37-1.17,2.73-2.19,3.8-2.19,2.17,0,2.71,1.34,1.21,2.25-1.5.91-3.24.37-4.29,1.45-.26.27-.63.71-1.06,1.21l-.73,5.81s2.38-3.97,3.42-4.47c1.79-.88,2.96,0,3.67-.83.75-.88,3.51.21,3.51.21l-8.47-11.83Z"/>
    <circle class="cls-1" cx="336.71" cy="190.62" r="1.61"/>
    <circle class="cls-1" cx="349.78" cy="189.78" r="1.61"/>
    <g>
      <path class="cls-1" d="M283.98,172.54l3.11-88.78s.17-2.85.41-6.01c-1.24,1.42-3.57,4.32-4.78,4.28-1.38-.04-3.21-1.21-4.88-1.04-1.67.17-7.3.38-8.86.08-.37-.07-.85-.16-1.37-.3-1.63,42.2-3.98,101.78-4.3,103.82-.5,3.17-4.33,5.06-4.39,8.28-.06,3.22,3.44,3.72,3.44,3.72l27.67.06s1.56.5,2.67-2.56c1.11-3.06-2.41-7.31-5.29-10.92-2.26-2.82-3.43-10.64-3.43-10.64ZM278.8,84.33c2.14-.29,3.85,1.93,3.85,1.93l-2.43,90.15s.6,2.24,1.33,4.04c.83,2.04,1.48,2.85,2,3.77.52.92-.11,2.28-.52,2-8.48-5.6-7.94-7.31-7.94-7.31v-2.65l2.83-88.78s-.39-2.97.88-3.15ZM269.03,148.49c.67-15.56,2-62.11,2-62.11,0,0,.22-1.22.78-1.72s3.27-.35,3.27-.35c0,0,.84.4.95,1.12.11.72-3.33,90.22-3.33,90.22,0,0-.06,2.61-.44,3.56-.39.94-1.22,2.94-2.11,4.17-.89,1.22-2.17,4.23-3.89,2.89,0,0,2.11-22.22,2.78-37.78ZM287.88,191.42c.42.58,0,1.5,0,1.5l-20.54.17s-1.1.16-1.56-.84c-.46-1-.11-1.78-.11-1.78,0,0,3.25-1.92,4.79-3.5s2.46-3.92,3.79-3.87c1.33.04,4.33,3.92,8.04,5.58,3.71,1.67,5.17,2.17,5.58,2.75Z"/>
      <path class="cls-1" d="M425.14,28.49s-30.11-2.06-32.5-1.17c-1.35.5-3.94,4.83-3.94,4.83,0,0-43.17,70.89-45.06,70.89-1.67,0-53.28-73.72-55.89-74.89-1.25-.56-5.56-.97-11.44-.5-6.36.51-14.28,1.94-14.28,1.94,0,0-2.22.83-2.39,3.61,0,0-.33.28.28,1.83.61,1.56,5.83.61,7.5,1.44,1.67.83,1.78,2.89,1.78,2.89,0,0-.64,16.92-1.5,39.22.72.31,1.47.56,2.18.62,2.67.21,11.08.83,13.38-.33,1.29-.66,2.89-2.24,4.44-3.51.26-3.06.57-5.81.84-5.88.61-.17.94.67.94.67l2.67,3.61c.7.23,1,.68.86,1.17l41.69,56.39s4.31,4.83,6.93,4.83,5.95-3.66,5.95-3.66l38.72-60.67s5.72-10.22,7.06-11.11c1.33-.89,1.61,4.44,1.61,4.44,0,0,.08,2.33.21,6.07,1.5.89,2.82,1.81,2.23,2.59-.53.71-1.3,1.14-2.1,1.29.39,11.14,1.01,29.18,1.43,41.15.64,18.39,2.17,46.5,2.17,46.5,0,0-.11,8.33-1.06,14.39s-5.67,9.39-6.89,10.67c-1.22,1.28-1.06,3.17-.89,5.56.17,2.39,4.28,2.35,4.28,2.35h25.78s5.11.32,6.67-2.35c1.56-2.67-1.5-7.33-2.83-10.17-1.33-2.83-1.67-6.06-1.67-6.06,0,0-1.77-55.68-3.23-97.26-2.07.55-4.92.61-5.24-.33-.25-.73,2.75-1.19,4.78-2.06.12-.05.25-.11.37-.17-.49-13.88-.94-25.98-1.26-33.58-.11-2.46-1.03-4.35-1.02-5.72,0-1.37.99-2.24,1.06-2.33.89-1.39,9.54-.68,10.11-3.11.89-3.78-2.72-4.11-2.72-4.11ZM277.31,55.13c-.11,2.78-.83,12.42-.89,13.14-.06.72.11,6.94-.11,7.5-.22.56-2.17,2.22-3.22,1.56-1.06-.67-1.83-5.22-1.5-10.94s1.5-26.72,1.5-26.72c0,0,1.1-1.56,1.99-1.39.9.17,2.23.83,2.23,2.78s.11,11.31,0,14.08ZM395.37,52.54c-1.94.44-3.61,3.56-3.61,3.56,0,0-20.98,33.83-25.37,40.39-4.39,6.56-21.69,33.44-21.69,33.44,0,0-1.11,2.41-2.39,2.39-2.89-.06-7.78-7.39-7.78-7.39l-45-60.33s-2.11-2.22-3.39-1.67-2,3.83-2,3.83c0,0-.06,6.61-.56,7.39s-3.89,3.11-4.67,2c-.78-1.11-.5-1.5-.5-1.5l1.11-29.67s-.22-1.94.89-2.78c1.11-.83,5.83,6.94,5.83,6.94l50.89,68.06s3.97,5.94,6.32,5.67,7.27-8.75,7.27-8.75l43.36-71.64s1.94-2.5,3.83-3.5c1.89-1,5.67-2.06,6.67-.83s.67,5.44.67,5.44c0,0,.23,18.57.46,22.07.22,3.5,1.04,8,.2,8.5s-6.33-.57-6.94-3.01c-.61-2.44-.72-15.83-.72-15.83,0,0-.94-3.22-2.89-2.78ZM407.88,79.21c2.54.17,2.99-.84,3.88.72.89,1.56-.78,2.12-2.56,2.12-1.78,0-10.89-4.18-9.67-6.2.62-1.02,5.8,3.2,8.35,3.37ZM398.81,81.82l1.17-1c1.22-.44,6.61,3.83,6.72,5.22.11,1.39-.7,1.61-.61,2.78,1.33,18.11,3.28,82.33,3.28,82.33,0,0,.39,2.94,0,4.17-.39,1.22-8.79,10.29-9.39,8.78-.94-2.39,1.22-4.06,2.56-14.17.43-3.28-3.72-88.11-3.72-88.11ZM422.2,191.54c-.94.78-11.22.22-14.61.11-3.39-.11-11.87,1.27-12.39.1-1.56-3.54,4.98-4.61,7.86-6.19,3.89-2.15,4.7-5.68,6.48-5.51,1.99.19,4.33,4.33,7.22,6.44,2.89,2.11,6.39,4.28,5.44,5.06ZM415.03,83.82c1.17,1.17.78,12.56.78,12.56l3.5,84.39s2.78,5.17,1,4.94-7.94-6.28-8.56-8.06c-.61-1.78-3.06-85.78-3.06-85.78,0,0-1.44-3.44-.5-5.33.94-1.89,5.67-3.89,6.83-2.72ZM415.42,74.42c-.54.83-3.17,2.21-4.67,2.25-1.5.04-3-.67-3.04-1.25-.04-.58,0-19.71-.21-24.83-.21-5.12-1.38-11.83-1.04-12.75.61-1.68,5.46-2.42,6.5-1.58,1.04.83.79,19.54.79,23.04s2.21,14.29,1.67,15.12ZM395.61,36.92c-2.39,1.29-49.52,79.96-49.52,79.96,0,0-1.06,2.11-3.29,2-1-.05-3.88-4.17-3.88-4.17l-56.25-74.21s-2.79-2.75-5.29-3.83c-2.5-1.08-8.42-2.38-7.5-3.5.92-1.12,2.12-1.5,2.12-1.5l12.75-.18s3.33,2.67,5.78,5.56c2.44,2.89,49.56,67.67,49.56,67.67,0,0,2.44,4.22,4.33,4.22s7-8.89,7-8.89l38.11-61.33s2-6.89,5.89-8c3.89-1.11,22,0,22,0l.04,1.38s-18.41,2.97-21.85,4.83Z"/>
    </g>
  </g>
  <g>
    <path class="cls-1" d="M661.65,23.2h-172.33c-1.56,0-2.83,1.27-2.83,2.83v172.33c0,1.56,1.27,2.83,2.83,2.83h172.33c1.56,0,2.83-1.27,2.83-2.83V26.03c0-1.56-1.27-2.83-2.83-2.83ZM662.1,195.98c0,1.56-1.27,2.83-2.83,2.83h-167.56c-1.56,0-2.83-1.27-2.83-2.83V28.42c0-1.56,1.27-2.83,2.83-2.83h167.56c1.56,0,2.83,1.27,2.83,2.83v167.56Z"/>
    <path class="cls-1" d="M665.43,18.58h-179.89c-2.03,0-3.67,1.64-3.67,3.67v179.89c0,2.03,1.64,3.67,3.67,3.67h179.89c2.03,0,3.67-1.64,3.67-3.67V22.25c0-2.03-1.64-3.67-3.67-3.67ZM666.7,199.74c0,2.03-1.64,3.67-3.67,3.67h-175.08c-2.03,0-3.67-1.64-3.67-3.67V24.65c0-2.03,1.64-3.67,3.67-3.67h175.08c2.03,0,3.67,1.64,3.67,3.67v175.08Z"/>
    <path class="cls-1" d="M618.78,38.13l2.17-4.67s-3.42-2.67-4.42-2.42-1.08,2.08-4.75.75c-3.67-1.33-11-3.5-15.33-3-4.33.5-10,6.08-10.83,5.67-.83-.42-.88-7.21-4.21-7.29-3.33-.08-3.39,8.56-5.34,8.62-3.33.09-3.66-8.74-6.08-8.74-1.25,0-3.29,2.75-3.54,3.75s.91,2.42,0,2.75c-2.12.77-7.69-4.34-13.65-4.81-7.62-.6-13.35,1.23-15.69,1.4-2.33.17-6.92-.5-7.33.42-.42.92,1.5,4.75,3.25,4.92s4.17,1.39,2.9,3.54c-1.41,2.39-.48,4.13-1.32,4.96-.83.83-3.25-.08-3.25-.08l8.08,11.5s-.83-7.33,0-7.08c.83.25,3.08,6.5,9,6.25,5.92-.25,7.42-3.08,8-2.92.58.17-.25,5.42.58,8.17s3.17,12.03,1.67,12.44c-2.78.77-2.89.16-2.61,1.64.19.99-4.06-1.17-4.06-1.17l24.04,32.67,18.21-26.17s-3.92,3.44-6.83,1.36c-2.92-2.08-1.69-2.9-2.03-4.25-.33-1.35-3.64.22-4.47-3.11-.83-3.33,3-9.33,4.42-7.17,1.42,2.17.17,5.65.25,6.7.08,1.05,1,.13,1.42,1.22s1.58,2.75,4.17,1.92c2.58-.83,2.67-3.83,2.67-3.83,0,0-5,.5-4.33-1.75s2.59-3.43,2.93-4.59c2.9-9.91,1.82-14.07,2.65-14.16.83-.08,2.5,2.33,6,1.75,1.97-.33,6.36-1.42,8.5-3.33.79-.71,3.1.73,3.1.73l5.31-11.32s-4.71,1.17-4.33-1.25c.38-2.42,5.08,0,5.08,0ZM581.65,92.98c0-.71,1.33,1.1.88,1.89-.46.79-1.33,1.12-1.62,0s.75-1,.75-1.89ZM603.19,35.02c.1-.6,4.22,1.53,2.94,2.61-1.28,1.08-1.36-.7-1.92-1.34s-1.11-.77-1.03-1.27ZM591.03,34.11c2.04-1.03,5.17-2.85,6.5-2.39,1.33.45,2.52,1.45.71,1.95-2.5.69-3.25.12-4.88.69-.85.29-3.67,2.98-4.25,2.69-.91-.46-.12-1.9,1.92-2.93ZM587.33,46.82c.58.19,2.69,1.5,2.03,1.72-.67.22-1.97-.69-2.53-.58-.56.11-1.11.44-1.58-.25-.43-.63,1.5-1.08,2.08-.89ZM581.07,37.42c1.59-.55,4.12,1.29,3.88,1.75-.25.46-2.67-.92-3.46-.33-.79.58-1.04,1.37-.67,2.1.38.73,2.83.65,2.79,1.94-.04,1.29-3.85,1.33-4.55.12-.7-1.21.68-5.12,2.01-5.58ZM578.11,62.47c.46,1.16-.71-.04-1.38,0-.67.04-3.92.75-4.05,0-.22-1.32,4.97-1.16,5.43,0ZM574.11,70.08c-.62,0-.83-3.46-.29-3.62.6-.18.27,1.75.57,2.08.3.33.33,1.54-.29,1.54ZM569.99,60.25c.71,1.12,2,.71,1.78,1.46-.22.75-3.95,1.08-4.78.33-.83-.75,1.91-5.12,3.62-5.17,1.14-.03-1.33,2.25-.62,3.38ZM570.44,53.29c-.88-.67.83-1.33.12-2.38-.71-1.04-1.46-.46-1.58-1.62-.12-1.14,3.35-.04,3.69,1.42.35,1.46-1.36,3.25-2.24,2.58ZM566.83,39.17c.22-.66,4.53-1.79,5.28-1.21s2.12,4.92,1.12,5.04-.71-3.17-1.75-3.54c-1.04-.38-2.3,1.12-2.17,2.17.13,1.04,1.74.92,1.54,1.38-.2.45-.87,1.33-1.37,1-.49-.33-2.93-4-2.65-4.83ZM566.32,52.71c2.87,1.71-2.13,4.29-2.13,4.29,0,0,1.88-2.84,0-3.09s-2.37.96-3.62.46c0,0,1.1-4.44,5.75-1.67ZM561.65,62.47c-1.54.12-3.17-5.02-1.75-5.12,1.42-.1,3.58-.6,3.83-.18.25.42-2.5,2.08-2.5,2.88s.42,2.42.42,2.42ZM564.57,47.01c.41.56-1.5,1.82-2.21,1.25-.84-.67,1.37-2.38,2.21-1.25ZM550.32,31.29c1.27-.92.46.35,1.96.42,1.5.08,4.96.54,4.96,1.52s-5.33,1.1-6.25.56c-.92-.54-1.07-2.21-.67-2.5ZM545.65,35.17c.92.38,1.25,1.48-.54,1.57,0,0-.38-1.95.54-1.57ZM542.24,33.75c-.38.29-.92,1.21-1.54.96s-1.08-.21-1.08-.96c0-.82,1.42-.67,2.17-.92s1.71-1.62,2.21-.92c.5.71-1.37,1.54-1.75,1.83ZM557.24,45.46c-.42-1.08-2.08-5.08-5.54-5.38-3.46-.29-3.62,1.5-3.21,1.75.42.25,2.21,2.81,2.33,3.74.12.93-.21,2.22-1.5,2.47-1.29.25-3.38-.29-5.21-3.75-.88-1.65,3.12-1.17,3-2.71s.42-4.25,3.71-4.75c3.29-.5,9.38,1,11.58,3.79,2.54,3.21-.92,2.25-1.83,2.92-.92.67-3.01,2.75-3.33,1.92ZM566.32,76.42c-.5,1.25-1.19,4.45-3.49,4.61-1.38.1-.92,1.1-1.72.68-.79-.42-4.25-3.21-4.46-4.58-.23-1.5,1.79-.54,3.42-1.42s4.88-4.71,4.75-5.96-1.33-3.08.54-4c1.88-.92,3.67-.83,4.21.46.54,1.29.64,2.08,1.64,3.21s.61,4.54-1.27,4.92c-1.88.37-3.12.83-3.62,2.08ZM572.15,95.17c-1.41,1.35-2.25-.25-2.21-2,.02-.68,3.62.65,2.21,2ZM570.61,80.08c.21-1.08,5.93-.83,5.92.33,0,1.17-6.13.75-5.92-.33ZM577.65,98.33c-.42.79-1.62,1.46-2.16.38-.54-1.08-.47-4.12.58-5.29,1.05-1.17,1.3.38,1.3.38.62,1.17.71,3.74.29,4.53ZM577.69,71.38c-1.33-.29.21-4.88.83-4.75,1.01.2.5,5.04-.83,4.75ZM578.33,53.12c.19-.48.53-1.95,1.45-2.41,0,0-.29,1.19.12,1.69s.74,1.69.74,1.69c0,0-2.5-.49-2.31-.97ZM582.99,59.67c-.54.29-2.83-1.13-2.25-2.09.51-.83,1.5.79,1.75.79s1.04,1.01.5,1.29ZM590.31,61.9c-.36.03-.82-1-.82-1l-6.02-6s-.79-2.83,1.72-3.44c2.51-.61,6.37,3.16,4.7,2.94-1.67-.22-3.94-1.11-3.83,0,.11,1.11,2.37,3.92,3.43,3.64,1.07-.28,1.34.22,1.48.75.14.53-.3,3.08-.66,3.11ZM591.19,50.57c-.56.08-1-.67-.86-1.19.09-.32,1.28-.22,1.5.25s-.08.86-.64.94ZM606.5,45.54c-.85.86-1.61.44-2.19.97s-.67,1.07-1.64,1.16c-.97.08-3.56.4-3.72-1.94-.17-2.33,1.25-.94,1.36-2.42.11-1.47.44-2.67-1.14-2.86s-5.33,1.28-5.63,3.17c-.31,1.89.39,4.33.11,4.47-.28.14-4.33-3.89-4.64-4.77-.57-1.67,2.96-7.36,8.75-6.88,7.58.63,4.77,6.6,5.44,6.99,1.77,1.05,2.86-.82,3.2-.78.4.05.61,2.39.12,2.89Z"/>
    <path class="cls-1" d="M627.69,63.04c-.32,1.59-1.96,2.29-2.96,1.04s0-2.92,0-2.92l-6.83,11.04s1.25-1.24,2.5-.67c2.17,1,2.1,4.23,3.23,5.98s3.56,1.15,3.98,1.9c.42.75.75,2,.75,2l2.29-8.58-2.96-9.79ZM626.07,75c-1.25-.46-4.75-7.54-3.17-8.17,1.28-.5.46,1.62,2.29,2.92,1.83,1.29,5.58,2.84,4.67,4.07-.92,1.23-2.54,1.64-3.79,1.18Z"/>
    <path class="cls-1" d="M624.36,170.71c.33-4.79,6.67-6.33,4.71-21.75-.93-7.32-7.07-12.5-13.26-15.92-.41-1.03-.78-2.47.46-2.42,1.92.08,11.25-6.67,11.13-16.67s-2.71-11.25-2.46-14.75,3.24-6.2,1.92-7.75c-2.45-2.87-6.67,4.83-8.25,4.5-1.58-.33-4.75-3.33-4.08-7.75s3.37-5.21,5.75-.92c2.8,5.05,5.21-1.75,3.62-4.96-.66-1.33-3.28-4.09-4.5-3.67-2.29.79-6.46.29-6.46.29l-4.88,8.38s2.12.25,1.71,1.67c-.22.74-.79.83-.71,2.42.08,1.58,2.79,6.21,1.46,6.71s-9.23,1.88-10.21,4.75c-.54,1.58.75,1.17-.71,3.17-1.1,1.51-3.58,6.83-3.25,9.83.33,3,1.5,3.33.67,4.83s-5.17,3.5-4.92,1.42c.25-2.08-.71-2.62-.71-2.62,0,0-2.12.62-2.54,2.46-.42,1.83,2.17,4.24,5.17,4.24,3,0,5.08-3.74,7.25-3.83,2.17-.08,4.62,1.71,9.29-.12,4.67-1.83,6.92-5.42,5.75-8.5-1.17-3.08-5.04-3.88-5.04-3.88l-.17,2.32s1.83,1.1,1.25,2.35c-.58,1.25-4,3.58-5.5,2.5-1.5-1.08-3.58-4.83-5.17-3.75-1.58,1.08,1,3.17,1,3.17l-.75.42s-3.62-1-1.39-6.85c2.25,1.42,3.98-.74,4.89-2.4.92-1.67,5.33-4.92,11.5-.58,6.17,4.33,4.67,10.67,2.17,13.75-2.5,3.08-6.5,5.91-9.17,5.41-2.24-.42-6.51.97-7.83,1.43-.01,0-.04,0-.04,0l-.37.15h0s-12.34,5.1-12.34,5.1c0,0-5,1.39-6.92-.35-1.92-1.74-.75-3.57-.75-3.57l-5.42,4.58-9.41-2.59s1.38,2.17-.12,3.09c-1.5.92-19.47-8.08-23.47-7.83-1.09.07-2.1.59-3.01,1.32-2.55-.6-9.33-3.04-9.46-11.87-.17-10.89,10.11-11.28,13.72-8.06s3.01,7.4-.33,9.51c-3.33,2.11-5.9.16-6.34-1.84-.44-2,2.83-2.37,2.83-2.37,0,0,1.5-3.16-2.22-2.78-3.72.39-5.33,5.92-1.33,10.81s10.78,2.33,12.22,2.11c1.44-.22,7.37,8.37,10.33,2.22.72-1.5-1.89-4-1.89-4,0,0-1.33.89-1.67,2.54-.21,1.04-3.05-1.04-3.6-2.81s1.05-3.06,1.23-3.88c.75-3.27,2.66-1.17,2.66-1.17l-26.67-36.72s.22,1.84-.39,2.67c-.61.83-2.06,2.06-2.89,3.78-.83,1.72,1.33,4.44.39,5.11-.94.67-.22-.61-2-.89s-2.11,1.83-2.5,3c-.39,1.17,3.69,2.72,4.08,5.67.39,2.94-3.42,15.28-1.53,21.44,1.89,6.17,9.78,10.06,10.39,11.89.2.61.22,1.12.16,1.54-.87.65-3.04,1.16-3.02,2.03.04,2.43,2.5,1.18,2,2.02s-5.21,4.54-5.88,8.21c-.67,3.67,1.61,8.52,1.12,8.62-1.92.42-1.08-3-2.25-4-1.17-1-2.25-.42-2.25-.42,0,0-.33-3.21,2.92-6.71s3.92-5.04,3-5.96c-.92-.92-5.84,3.82-7.17,8.17-1.29,4.25-3.08,9.79-2.5,12.79.58,3,4.12,12.25,2.29,13.83-1.83,1.58-2.67.29-3.23.88-.56.58-.56,2.5-.56,2.5,0,0,4.5,2.83,7.17,1.42,2.67-1.42,1.54-4.29,4.21-4.29s4.33,1.58,7.88,3.04c2.33.96,1.96-.5,3.46,1.08,1.5,1.58,2.71,6.96,1.24,9.39-1.89,3.13.83,3.05-.37,4.69-3.33,4.58-12.92-.83-9.25-4.58,2.91-2.97,2.75,2.75,5.08,1.96,2.33-.8,2.17-3.8.75-5-1.42-1.21-4.08-2.96-5.92-2.04-1.83.92-4.75,3.83-4.67,7.92s8.6,14.68,19.25,4.58c5.75-5.45,2.67-14.32,4.92-15.46,2.79-1.42,7.5-6.04,7.77-9.05.21-2.41,2.12-2.68,2.11-4.74-.02-3-1.75-3.84-1.92-4.84-.17-1-.42-4.2-2-5.03-1.58-.83-3.58-4.42-4.67-4.92-1.08-.5-4.88-2-7.62-2.5s-3.75,1.12-5,1.71-3.25.17-4.58,1.17-2.5,4.67-3.75,4.17-2.79-4.75-2.54-7.12c.44-4.19,7.54-9.88,8.88-8.62,1.33,1.25-2.03,5.61.17,6.54,3.42,1.46,2.69-2,6.75-3.96,1.21-.58,3.24-1.67,5.79-1.21,2.94.53,6.52,2.84,8.42,5.25,1.91,2.43-2.42-.08-4.17,1.5s6.3,5.37,7.72,9.04,3.79,7.38,2.83,9.38c-.46.96-3.04,1.79-3.21,4.29s4.55,8.05,2.67,9.12c-1.75,1-1.42,2.71-2.5,2.71s-4.96,1.03-4.96,3.31,2.42,2.28,2.33,4.53c-.08,2.25-.96,5.08-.12,6.33.83,1.25,4.46,1.62,5.75,1.5,1.29-.12,5.08-.29,5.08-.29l1.49-.29s9.8.89,11.38.17,3.57-2.05,3.24-3.52c-.33-1.47-.85-3.14.12-4.6.97-1.46,3.47-4.96,2.39-6.38s-5.54.54-6.71-3.12c-1.17-3.67-1.12-3.58,1.17-5.92,1.02-1.04,1.89-3.5-1.38-7.38-2.46-2.92,2.29-13.37,4.92-14.58,1.56-.72,3.04-1.42,3.88-2.17s1.33-1.67.83-2.25c-.5-.58-5.12.42-5.12.42,0,0-1.83-.08-1.42-.75.42-.67,1.25-2,2.67-2.25,1.42-.25,3.58.21,4.04-.46.46-.67-1.34-1.54.54-3.12,1.88-1.58,6.25-1.79,9.33-.54,3.42,1.39,3.5,4.29,5.17,4.62.68.14,1.8-.66,1.75-1.75-.04-.91-1.67-3.42-.08-4.17,1.41-.67,8.54,2.92,9.21,9.29.51,4.85-1.82,5.51-1.83,6.54-.04,2.42,2.44,2.16,3.27,3.07.83.92-.92,5.1-1.87,4.15-.85-.85-3.44-6.02-3.19-7.18.25-1.17.58-2.21-.5-3.04-1.08-.83-3.99-.81-4.65-1.98-.67-1.17-3.97-3.48-6.68-3.35-1.34.06-4.71,2.67-6.21,2.33-1.5-.33-4.88,2.5-6.12,4.83s-.58,3.58-1.87,4.72c-.92.82-2.72,2.7-2.55,4.11.17,1.42,1.08,4.75,3.31,8.45,3.11,5.17,8.16,7.18,8.16,8.76s-.81,12.37,2.36,15.2c3.17,2.83,9.25,4.33,14.88-.42,4.4-3.71,4.58-14.14-3.67-13.33-7.21.71-3.21,9-1.21,8s-.58-3.8.42-4.19,5-.77,4,3.23-8.96,5.21-9.54,2.96c-.58-2.25.71-2.33.12-4.25-.58-1.92-1-5.87,2.42-8.12,3.42-2.25,7.67-5.62,9.67-4.96,2,.67,3.08,2.71,5.92,2.79,2.83.08,4.81-1.46,3.96-3.08-1.31-2.5-4.7.2-4.54-2.12ZM603.64,118.68c.74-.69,3.64,1.03,2.78,1.36-.86.33-3.67-.53-2.78-1.36ZM603.05,104.54c-.83-2.03,2.75-2.03,2.94-1.36.32,1.11-2.37,2.75-2.94,1.36ZM619.55,105.08c-1.33.6-2.83-2.45-4.69-2.67-1.86-.23-3.47.56-3.33-1.06.12-1.39,4.46-1.23,5.17-.26.69.94,4.19,3.38,2.85,3.99ZM621.67,123.21c-.28-.25-.06-1.44.36-1.58.42-.14.92.14.92.14.44.44-1,1.69-1.28,1.44ZM624.3,108.21c.11.8.11,4.08-.25,4.16-.36.08-.56.69-.69.17-.14-.53.03-2.18-.28-2.43s-1.06-.74-.06-1.82c1-1.08,1.28-.08,1.28-.08ZM622.14,98.02c1.1-.11.69,3.61.89,3.83s1.03.54.61.94c-.42.4-1.22.51-1.69-.94-.47-1.44-.89-3.72.19-3.83ZM549.71,111.65c.54-.35,1.94,2.85,1.02,4.12-1.12,1.56-2.42,2.21-3.04,3.04-.62.83-1.1,1.83-2.12,1.58-1.02-.25,3.46-3.67,3.94-5.17.48-1.5-.38-3.21.21-3.58ZM536.05,101.48c.42-.21,1.38-1.21,2.56-.98,1.19.23,1.1,1.43.86,1.63-.33.27-1.27.41-1.92.49-.65.08-1.71.11-2.27.44-.56.33-.88,1.83-1.92,1.12-.72-.49.6-2.36,1.17-2.58.78-.31,1.1.08,1.52-.12ZM533.89,86.54c.85-.04,1.38,1.77.33,1.77s-1.58-1.71-.33-1.77ZM531.82,93.04c1.06-.08,2.96-1.35,3.29-1.21.33.15.32,3.12-1.43,3.75s-3.06-.29-3.12-2.54c-.03-.99.21.08,1.27,0ZM527.22,164.35c-1.1.16-1.89-4.79-2.08-6.73-.13-1.24-1.25-3.05-.31-3.36.82-.27.56,1.56.83,2.14.28.58,2.36,5.33,2.42,5.94.06.61.21,1.84-.86,2ZM550.2,166.52c-.21.92-.09,3.47-1.22,2.94-1.03-.48,1-2.92.75-3.92s-2.17-2.84-2.92-2.33c-.75.5-3.12,2.04-2.86,3.08,1.08,4.39,2.69,4.58,2.78,5.44.08.86.47,3.29-.31,3.22-1.28-.11-3.56-7.11-3.75-9.25-.11-1.19-1.16-2.21-.47-3.86.94-2.25,2.95-2.53,4.56-2.72,1.79-.22,4.96,2.29,4.97,3.61.01,3.67-1.33,2.92-1.53,3.78ZM553.5,173.16c-.69-.42-.46-1.49-.31-1.56.25-.12,1.28-.36,1.36.69.08,1.06-.36,1.29-1.06.87ZM557.78,157.63c1.01.05.42,1.33.94,2.47.53,1.14,1.69,2.92,1.69,3.69s-2.39,5.03-3.56,5c-1.17-.03-2.5-.92-2.69-1.72-.19-.81.64-2.58.56-4.53-.06-1.49-.96-2.47-.58-3,.38-.53,2.02-2,3.63-1.92ZM539.64,153.1c.17-1.15,1.72-.56,3.03-1.25,1.31-.69,2.28-1.69,3.83-1.78,1.56-.08,3.86,1.28,4.81,1.69.94.42,2.97.42,3.36,1.89.39,1.47-2.47,3.58-3.72,3.19-1.25-.39-3.61-1.15-4.75-1.19-3.36-.14-3.33,1.54-4.31,1.24-.97-.3-2.78-.24-2.25-3.8ZM537.72,158.52c.77-.33,1.32.97,1.58,1.92.25.89-.72,2-.58,3.14.14,1.14.96,4.86-.46,5.22-1.42.36-3.87-2.39-3.73-5.42s2.36-4.5,3.19-4.86ZM532.33,159.99c.03.39-.89,1.25-1.08,1.11-.19-.14-.47-1.11-.11-1.42.35-.29,1.17-.08,1.19.31ZM544.32,134.1c-.96-.08-2.01-.73-1.93-1.23.08-.49.67-.33.69-1.02.03-.84,1,.31,1.33.39.33.08,1.03-.17,1.03.25s-.17,1.69-1.12,1.61ZM548.78,136.9c-.42.14-1.33.64-1.56.33-.2-.27.42-1.75,1.75-1.81,1.33-.06,2.11.64,2.06,1.08-.06.44-1.83.25-2.25.39ZM553.78,133.04c-.47.03-.86-.56-1.25-.47-.39.08-1.5.22-1.72-.03s-1.08-.61-1.06-1c.05-.68,1.42.55,1.81.64.39.08,1.19-.62,1.83-.35.64.27.86,1.18.39,1.21ZM558.49,135.5c-.3-.18-.03-.91-.03-.91.25-.47,1.48-.24,1.42.69-.03.44-1.25.3-1.39.22ZM578.08,160.82c.39-3.28,2.72-1.89,2.94-3.33s1.83-2.44,1.83-2.44c0,0,.39,1.17,0,2.28-.39,1.11-1.17,1.33-1.22,2.22-.06.89-.39,3.83-.39,3.83,0,0-3.56.72-3.17-2.56ZM575.78,140.42c1.25,0,.97,1.54,0,1.54s-1.25-1.54,0-1.54ZM568.19,155.04s8.22,5.89,5,7.67-5-7.67-5-7.67ZM569.15,172.17c-.58,0-.54-.96,0-.88.54.08.58.88,0,.88ZM565.14,143.1c1.06-.5,5.72,3.78,6.22,2.11s-.61-2.78.22-3.39c1.4-1.03,2.44,6.44-1.56,6.11s-5.94-4.33-4.89-4.83ZM572.5,189.21c-.03.83.17,3.75-.31,3.92-.47.17-6.61-.19-6.3-1.17.31-.97.23-3.38.23-3.38.58-1.22,5.16-3.27,6.77-1.48,1,1.11-.36,1.28-.39,2.11ZM569.89,181.93c-.47-.34.56-4.97,1.94-5.14,1.39-.17,2.72-.14,2.78.92.06,1.06-4.31,4.53-4.72,4.22ZM576.47,173.85c-.86.06-1.72-.56-1.64-.92.11-.48,1.31.19,1.69,0s.64-.72,1.11-.31c.47.42-.31,1.17-1.17,1.22ZM577.97,178.96c-.42-.81-.08-2.25-.08-2.25.81-.87,2.67-.7,3.56.55.89,1.25.22,2.17.61,2.72.39.56,1.56,1.06.67,1.69-.41.29-1.03-1.53-2-1.92-.97-.39-2.34,0-2.75-.8ZM586.05,187.04c.58.92-.56,1.56-.81,2.36s.25,2.72-.56,3.22c-.81.5-1.5-.08-2.33.06-.83.14-1.47.69-2.61-.03-1.14-.72,0-2.22-.67-3-.67-.78-1.22-1.78-.56-3.06.77-1.47,6.94-.47,7.53.44ZM581.15,147.81c-2.62-.96-2.71-5.29-.33-6.09,1.1-.37-2.18,3.54.93,4.04,3.11.5,1.26-2.7,5.05-3.43,1.4-.27-3.03,6.44-5.65,5.48ZM595.36,166.85c-.33.03-.75-1-1.22-1s-1.89-.31-2.36-1.75c-.47-1.44-.11-2.89.78-3.69.89-.81,1.78-3.17,2.83-3.19,1.14-.03,1.72,2.67,1.75,3.86.03,1.19.03,4.36-.36,4.81s-1.08.94-1.42.97ZM600.67,172.65c-.11.66-2.22,1.14-3.28-.65-1.06-1.79,1.11-2.76,1.75-2.68,1.1.14,1.64,2.68,1.53,3.33ZM608.97,163.95c-.06,2.09-.75,6.29-1.56,7.81-.27.51-1.27.07-1.22-.18.89-5.47,2.44-6.1,1.67-7.8-1.03-2.28-3.92-1.52-4.06.16-.14,1.68,1,1.62.92,2.62-.08,1-.49,2.24-2.03.92-1.44-1.25-.25-1.25-1-2.44-.75-1.19-1.49-3-1.36-3.89.31-2.14,2.11-3.69,5.11-3.5s3.61,3.51,3.53,6.3ZM611.28,156.15c-1.75-.19-3.89-1.94-5.75-1.97s-5.36,1.31-6.61.75-1.5-2.19-.78-2.86c.91-.84.97-.14,2.33-.75,1.36-.61,4.08-2.61,5.83-2.61s4.03,3.31,4.72,3.58c.69.28,2.06.25,2.11.89.06.64-.11,3.17-1.86,2.97ZM617.42,165.93c-.67,1.08-2.11,2.42-3.28,2.47-1.17.06-1.72-1.67-1.83-2.47-.11-.81-.11-5.5.33-6.08.44-.58,1.33-1.47,1.78-1.39,1.75.33,1.11,2.03,1.67,3.03s2,3.36,1.33,4.44ZM598.3,133.54c-.86-.06-1.19-.78-1.28-1.17-.14-.66,3.36-.92,3.58-.5.22.42-1.44,1.72-2.31,1.67ZM605.28,136.4c-1.06.44-3.81-.61-3.81-1.14,0-.57,1.47-1.25,1.97-1.22.5.03,2.89,1.92,1.83,2.36ZM621.11,141.24c-.72-1.12-3.86-4.19-6.03-5.11-1.38-.58-3.45-2.11-4.22-2.25-.78-.14-6.36-.33-4.36-3.25.68-.99,4.55,2.6,5.79,2.55,1.23-.05,6.79,4.39,8.91,6.12,2.11,1.72,3.69,6.05,2.58,6.33-1.72.44-1.28-2.22-2.67-4.39ZM622.8,152.21c.39-.64.27-1.07.44-1.28.39-.45,1.19,1.22.64,1.78-.56.56-1.45.11-1.08-.5ZM623.67,163.79c-.42-.64-.31-3.42.41-4.08.73-.67,2.12-4.08,2.46-4.63.32-.52.94-.54,1.32-.23.27.22-.72,1.05-.84,2.03-.11.97-.06,3.25-1.08,4.69-1.03,1.44-1.86,2.86-2.28,2.22Z"/>
    <path class="cls-1" d="M493.92,105.77c.89-.44,5.33,7.84,4.78,9.8s-4.05,3.96-5.17,1.92c-1.44-2.61.73-4.62.62-5.87s-1.1-3.13-.91-4.02.69-1.83.69-1.83Z"/>
    <path class="cls-1" d="M494.55,82.03c1.36-.32,3.82.8,4.51,1.22,1.15.7,1.58,2.46,1.58,2.46l.17-4.75c-1.72-.36-4.48-1.21-4.37-3.8.04-.84,2.19.95,4.44,1.72l1.14-31.57s-3.5-8.61-8.56-7.33-2.33,8.28-.78,8.06c1.56-.22,3-.44,1.58-2.78-1.42-2.33,2.08-1.56,3.58.39s-1.52,10.92-4.85,13.64c-3.33,2.72-5.09,8.31-5.09,8.31v22.11s1.34-2.81,1.9-3.3c.66-.57,1.67-.87,1.73.08.06.94,2.87,1.55,2.87,4.22,0,3.78-1.61,2.01-1.89,5.39-.17,2.06,1.67,2.72,1.72,4.37.06,1.65-.67,1.35-.2,3.35.47,2,3.31,3.59,3.79,2.98.76-.96,1.74.53,1.74.53l.28-1.94s-1.32-.65-1.26-2.09c.06-1.44-1.95-1.37-1.93-3.32.02-2.23,1.91-1.47,2.07-3.97.16-2.5-1.33-3.11-1.83-3.5-.5-.39-.17-2.28-.11-3.22.06-.94,1.43-1.67,1.1-3.4-.33-1.72-3.59-1.72-3.86-2.39-.31-.77.15-1.36.51-1.45ZM500.32,51.5s.92.17,1.08,1.38c.17,1.21-1.08,2.25-1.08,2.25v-3.62ZM494.97,68.29c.76-3.83,4.26-5.25,4.26-5.25.96-.12,2.54,1.88,1.75,2.46-.79.58-3.25.42-3.21,1.88.04,1.46,3.03,2.34,3.17,4.21.14,1.87-.41,3.46-1.46,3.38-1.04-.08-5.28-2.83-4.52-6.67ZM490.82,80.58c-.88-.67-.79-5.29,0-5.62.96-.41.67,1.04,1.33,1.79s1.75,1.25,1.71,1.71c-.04.46-2.17,2.79-3.04,2.12Z"/>
    <path class="cls-1" d="M662.8,59.71s-1.28,1.11-2.5.5c-1.22-.61-.44-2.61-2.89-4.67-2.44-2.06-5.81-6.06-4.92-9.67.89-3.61,3.7-2.49,4.59-1.72.89.78,1.94,1.44,2.44.94s-.02-3.51-2.67-4.5c-3.56-1.33-7.17,3.78-7.17,3.78l.16,5.24c.1-.2.27-.31.59-.32.93-.03.31,1.81.75,2.67.44.86,2.11,2.56,1.14,3.22s-2.24-1.89-2.41-3.39h0s.79,25.86.79,25.86c.12-.05.24-.09.35-.14,2.03-.86,4.28-2.28,4.63-1.78.35.5-1.07,2.86-2.99,3.75-.52.24-1.19.44-1.91.58l1.25,40.98s1.06-2.89,2.44-3.44c1.39-.56,3.78,1.17,4.5-2,.72-3.17-1.06-3.44-.94-6.11.11-2.67,1.56-3.33,1.61-5.22.06-1.89-1.83-3.44-1.78-5.22.06-1.78,1.7-2.24,1.7-4.19,0-1.94-.81-2.65-.93-4.31-.11-1.67.83-2.56.83-3.94,0-1.39,3.89-.83,3.89-.83l-.56-26.06ZM655.74,58.67c.5-.75,2.68,2.4,2.4,2.67-.28.28-2.14-1.38-2.97-1.72-.68-.28.57-.95.57-.95ZM651.86,73.57c-.94-1.42-.47-3.44.31-4.28.78-.83,3.57-2.17,2.5-4.36-.63-1.28-1.84.44-2.79.49-.94.06-2.07-3.26.09-3.98,1.45-.48,3.86,1.55,4.17,2.6.31,1.06.28,4.14,0,4.97-.28.83-3.33,5.97-4.28,4.56ZM654.25,110.88c-1.06.33-2.06-4.14-1.39-4.54,1.22-.73,2.44,4.21,1.39,4.54ZM656.14,106.26c-.5-.16-1.22-1.49-.78-2.11.58-.79,2.17-.39,2.22.39.06.78-.94,1.88-1.44,1.72ZM655.75,93.96c.28-.52.17-1.02.78-1.08.52-.05,1.28,2.11.44,2.17-.83.06-1.5-.56-1.22-1.09ZM658.47,84.1c-1.78,1.33-4.39.83-4.22,2.5.17,1.67,1.06,2.39.97,3.44-.08,1.06-2.51,2.78-2.58,4-.06,1.22,2.88,4.61,2.88,5.94s-2.11,2.39-2.11,3.06.23,1.44.23,1.44h-1.28l-.67-19.89s-.06-.94.39-1.39,4.79-3.38,5.11-3.28c1.24.39,3.06,2.84,1.28,4.17ZM661.22,78.63c-.89.81-2.69-.06-2.83-1.31-.42-3.56,1.25-3.53,1.31-4.31.06-.78.14-1.17.14-1.17.67-.28,1.67,1.75,1.03,3.06-.64,1.31,1.25,2.92.36,3.72Z"/>
    <path class="cls-1" d="M520.69,67.38l-1.05,8.4c1.37-1.17,2.73-2.19,3.8-2.19,2.17,0,2.71,1.34,1.21,2.25-1.5.91-3.24.37-4.29,1.45-.26.27-.63.71-1.06,1.21l-.73,5.81s2.38-3.97,3.42-4.47c1.79-.88,2.96,0,3.67-.83.75-.88,3.51.21,3.51.21l-8.47-11.83Z"/>
    <circle class="cls-1" cx="569.15" cy="190.62" r="1.61"/>
    <circle class="cls-1" cx="582.22" cy="189.78" r="1.61"/>
    <g>
      <path class="cls-1" d="M516.42,172.54l3.11-88.78s.17-2.85.41-6.01c-1.24,1.42-3.57,4.32-4.78,4.28-1.38-.04-3.21-1.21-4.88-1.04-1.67.17-7.3.38-8.86.08-.37-.07-.85-.16-1.37-.3-1.63,42.2-3.98,101.78-4.3,103.82-.5,3.17-4.33,5.06-4.39,8.28-.06,3.22,3.44,3.72,3.44,3.72l27.67.06s1.56.5,2.67-2.56c1.11-3.06-2.41-7.31-5.29-10.92-2.26-2.82-3.43-10.64-3.43-10.64ZM511.24,84.33c2.14-.29,3.85,1.93,3.85,1.93l-2.43,90.15s.6,2.24,1.33,4.04c.83,2.04,1.48,2.85,2,3.77.52.92-.11,2.28-.52,2-8.48-5.6-7.94-7.31-7.94-7.31v-2.65l2.83-88.78s-.39-2.97.88-3.15ZM501.47,148.49c.67-15.56,2-62.11,2-62.11,0,0,.22-1.22.78-1.72s3.27-.35,3.27-.35c0,0,.84.4.95,1.12.11.72-3.33,90.22-3.33,90.22,0,0-.06,2.61-.44,3.56-.39.94-1.22,2.94-2.11,4.17-.89,1.22-2.17,4.23-3.89,2.89,0,0,2.11-22.22,2.78-37.78ZM520.32,191.42c.42.58,0,1.5,0,1.5l-20.54.17s-1.1.16-1.56-.84c-.46-1-.11-1.78-.11-1.78,0,0,3.25-1.92,4.79-3.5s2.46-3.92,3.79-3.87c1.33.04,4.33,3.92,8.04,5.58,3.71,1.67,5.17,2.17,5.58,2.75Z"/>
      <path class="cls-1" d="M657.58,28.49s-30.11-2.06-32.5-1.17c-1.35.5-3.94,4.83-3.94,4.83,0,0-43.17,70.89-45.06,70.89-1.67,0-53.28-73.72-55.89-74.89-1.25-.56-5.56-.97-11.44-.5-6.36.51-14.28,1.94-14.28,1.94,0,0-2.22.83-2.39,3.61,0,0-.33.28.28,1.83.61,1.56,5.83.61,7.5,1.44,1.67.83,1.78,2.89,1.78,2.89,0,0-.64,16.92-1.5,39.22.72.31,1.47.56,2.18.62,2.67.21,11.08.83,13.38-.33,1.29-.66,2.89-2.24,4.44-3.51.26-3.06.57-5.81.84-5.88.61-.17.94.67.94.67l2.67,3.61c.7.23,1,.68.86,1.17l41.69,56.39s4.31,4.83,6.93,4.83,5.95-3.66,5.95-3.66l38.72-60.67s5.72-10.22,7.06-11.11c1.33-.89,1.61,4.44,1.61,4.44,0,0,.08,2.33.21,6.07,1.5.89,2.82,1.81,2.23,2.59-.53.71-1.3,1.14-2.1,1.29.39,11.14,1.01,29.18,1.43,41.15.64,18.39,2.17,46.5,2.17,46.5,0,0-.11,8.33-1.06,14.39s-5.67,9.39-6.89,10.67c-1.22,1.28-1.06,3.17-.89,5.56.17,2.39,4.28,2.35,4.28,2.35h25.78s5.11.32,6.67-2.35c1.56-2.67-1.5-7.33-2.83-10.17-1.33-2.83-1.67-6.06-1.67-6.06,0,0-1.77-55.68-3.23-97.26-2.07.55-4.92.61-5.24-.33-.25-.73,2.75-1.19,4.78-2.06.12-.05.25-.11.37-.17-.49-13.88-.94-25.98-1.26-33.58-.11-2.46-1.03-4.35-1.02-5.72,0-1.37.99-2.24,1.06-2.33.89-1.39,9.54-.68,10.11-3.11.89-3.78-2.72-4.11-2.72-4.11ZM509.75,55.13c-.11,2.78-.83,12.42-.89,13.14-.06.72.11,6.94-.11,7.5-.22.56-2.17,2.22-3.22,1.56-1.06-.67-1.83-5.22-1.5-10.94s1.5-26.72,1.5-26.72c0,0,1.1-1.56,1.99-1.39.9.17,2.23.83,2.23,2.78s.11,11.31,0,14.08ZM627.8,52.54c-1.94.44-3.61,3.56-3.61,3.56,0,0-20.98,33.83-25.37,40.39-4.39,6.56-21.69,33.44-21.69,33.44,0,0-1.11,2.41-2.39,2.39-2.89-.06-7.78-7.39-7.78-7.39l-45-60.33s-2.11-2.22-3.39-1.67-2,3.83-2,3.83c0,0-.06,6.61-.56,7.39s-3.89,3.11-4.67,2c-.78-1.11-.5-1.5-.5-1.5l1.11-29.67s-.22-1.94.89-2.78c1.11-.83,5.83,6.94,5.83,6.94l50.89,68.06s3.97,5.94,6.32,5.67,7.27-8.75,7.27-8.75l43.36-71.64s1.94-2.5,3.83-3.5c1.89-1,5.67-2.06,6.67-.83s.67,5.44.67,5.44c0,0,.23,18.57.46,22.07.22,3.5,1.04,8,.2,8.5s-6.33-.57-6.94-3.01c-.61-2.44-.72-15.83-.72-15.83,0,0-.94-3.22-2.89-2.78ZM640.32,79.21c2.54.17,2.99-.84,3.88.72.89,1.56-.78,2.12-2.56,2.12-1.78,0-10.89-4.18-9.67-6.2.62-1.02,5.8,3.2,8.35,3.37ZM631.25,81.82l1.17-1c1.22-.44,6.61,3.83,6.72,5.22.11,1.39-.7,1.61-.61,2.78,1.33,18.11,3.28,82.33,3.28,82.33,0,0,.39,2.94,0,4.17-.39,1.22-8.79,10.29-9.39,8.78-.94-2.39,1.22-4.06,2.56-14.17.43-3.28-3.72-88.11-3.72-88.11ZM654.64,191.54c-.94.78-11.22.22-14.61.11-3.39-.11-11.87,1.27-12.39.1-1.56-3.54,4.98-4.61,7.86-6.19,3.89-2.15,4.7-5.68,6.48-5.51,1.99.19,4.33,4.33,7.22,6.44,2.89,2.11,6.39,4.28,5.44,5.06ZM647.47,83.82c1.17,1.17.78,12.56.78,12.56l3.5,84.39s2.78,5.17,1,4.94-7.94-6.28-8.56-8.06c-.61-1.78-3.06-85.78-3.06-85.78,0,0-1.44-3.44-.5-5.33.94-1.89,5.67-3.89,6.83-2.72ZM647.86,74.42c-.54.83-3.17,2.21-4.67,2.25-1.5.04-3-.67-3.04-1.25-.04-.58,0-19.71-.21-24.83-.21-5.12-1.38-11.83-1.04-12.75.61-1.68,5.46-2.42,6.5-1.58,1.04.83.79,19.54.79,23.04s2.21,14.29,1.67,15.12ZM628.05,36.92c-2.39,1.29-49.52,79.96-49.52,79.96,0,0-1.06,2.11-3.29,2-1-.05-3.88-4.17-3.88-4.17l-56.25-74.21s-2.79-2.75-5.29-3.83c-2.5-1.08-8.42-2.38-7.5-3.5.92-1.12,2.12-1.5,2.12-1.5l12.75-.18s3.33,2.67,5.78,5.56c2.44,2.89,49.56,67.67,49.56,67.67,0,0,2.44,4.22,4.33,4.22s7-8.89,7-8.89l38.11-61.33s2-6.89,5.89-8c3.89-1.11,22,0,22,0l.04,1.38s-18.41,2.97-21.85,4.83Z"/>
    </g>
  </g>
</svg>